<svg height="32px" width="32px" xmlns="http://www.w3.org/2000/svg" viewBox="0 0 490 490" xml:space="preserve"><g stroke-width="0"/><g stroke-linecap="round" stroke-linejoin="round"/><path d="M490 30.625V15.313H0v15.313h45.908V336.92H0v15.313h197.041l-54.339 115.965 13.877 6.49 33.577-71.658h109.672l33.577 71.658 13.877-6.49-54.339-115.965H490V336.92h-45.908V30.625zM292.653 387.717h-95.322l16.627-35.485h62.067zM428.78 336.92H61.22V30.625h367.56z"/><path d="m240.454 273.262-31.417-86.118h-95.524l-31.418 86.118zM124.22 202.457h74.11l20.232 55.493H103.987zm125.311 70.805H407.89l-31.418-86.118h-95.524zm116.234-70.805 20.232 55.493H271.423l20.232-55.493zM292.762 88.316h-95.524l-31.433 86.103h158.374zm-84.817 15.313h74.11l20.232 55.478h-114.59z"/></svg>
