<svg height="30px" width="30px" xmlns="http://www.w3.org/2000/svg" viewBox="0 0 286 286" xml:space="preserve"><g stroke-width="0"/><g stroke-linecap="round" stroke-linejoin="round"/><path d="M286 217.5c0-7.18-5.82-13-13-13H13c-7.18 0-13 5.82-13 13v52c0 7.18 5.82 13 13 13h260c7.18 0 13-5.82 13-13zm-234 39H17v-27h35zm50 0H67v-27h35zm-88.619-75h259.904c3.627 0 6.921-1.45 9.037-4.102 2.115-2.652 2.866-6.13 2.06-9.667l-34.85-152.737C248.04 8.44 241.603 3.5 234.881 3.5H51.785c-6.723 0-13.159 4.94-14.652 11.494L2.283 167.828c-.806 3.537-.055 6.967 2.062 9.619 2.115 2.651 5.409 4.053 9.036 4.053m88.996-127.354c.509-5.397 6.142-9.688 12.57-9.688 6.429 0 11.487 4.291 11.274 9.688-.159 4.022-3.195 7.554-7.446 9.189l-.83 14.982 20.04 8.514.59-51.331h-7.372c-1.171 0-2.224-.59-2.725-1.416-.498-.821-.365-1.838.344-2.579l12.107-12.663c.565-.59 1.463-.947 2.418-.947.953 0 1.85.344 2.415.934l12.107 12.643c.71.741.843 1.791.344 2.612-.5.826-1.554 1.415-2.722 1.415h-7.374l.481 41.826L168.239 69l-.68-12.5h-3.709c-1.806 0-3.32-1.04-3.379-2.537l-.523-13.107c-.055-1.398 1.304-2.356 3.034-2.356h16.711c1.73 0 3.24 1.05 3.371 2.447l1.252 13.054c.141 1.497-1.209 2.498-3.015 2.498h-3.709l1.185 15.301c.137 1.748-.907 3.442-2.689 4.194l-27.369 11.604.349 30.449c8.538 2.375 15.088 10.044 15.472 19.404.485 11.84-9.013 21.886-21.191 21.886-12.181 0-21.679-10.038-21.194-21.878.383-9.36 6.934-17.016 15.472-19.391l.235-20.479-27.934-12.048c-1.816-.784-2.881-2.453-2.739-4.274l1.406-17.935c-4.034-1.632-6.597-5.164-6.218-9.186"/></svg>
