 <svg
            xmlns="http://www.w3.org/2000/svg"
            shapeRendering="geometricPrecision"
            textRendering="geometricPrecision"
            imageRendering="optimizeQuality"
            fillRule="evenodd"
            clipRule="evenodd"
            viewBox="0 0 512 432.41"
            width="30px"
            height="30px"
          >
            <path
              fillRule="nonzero"
              d="M10.28 260.72C4.6 260.72 0 256.12 0 250.44c0-5.67 4.6-10.28 10.28-10.28h85.75l15.91-33.5c2.42-5.12 8.53-7.32 13.65-4.9a10.19 10.19 0 015.14 5.45l19.2 41.72L187.81 8.68c.86-5.59 6.09-9.42 11.68-8.56 4.76.74 8.24 4.65 8.64 9.24h.03l28.87 330.02 33.23-204.3c.91-5.59 6.18-9.38 11.77-8.47 4.4.71 7.69 4.14 8.44 8.29l30.44 162.18 38.55-91.25c2.19-5.22 8.2-7.66 13.41-5.47 2.48 1.05 4.33 2.96 5.36 5.23l.02-.01 15.56 34.58h107.91c5.68 0 10.28 4.61 10.28 10.28 0 5.68-4.6 10.28-10.28 10.28H387.19v-.02c-3.91 0-7.65-2.25-9.36-6.04l-8.65-19.23-42.43 100.45c-1.2 3.3-4.06 5.9-7.76 6.6-5.56 1.04-10.92-2.63-11.96-8.19L281.1 196.15l-36.91 226.9c-.43 4.88-4.31 8.89-9.35 9.32-5.65.49-10.63-3.7-11.12-9.35L194.99 94.6l-30.07 190.69c-.44 3.38-2.56 6.46-5.9 7.98-5.14 2.35-11.22.09-13.57-5.05l-24.37-52.99-9 18.95a10.275 10.275 0 01-9.58 6.54H10.28z"
            />
          </svg>