 <svg
            version="1.0"
            id="Layer_1"
            xmlns="http://www.w3.org/2000/svg"
            xmlnsXlink="http://www.w3.org/1999/xlink"
            x="0px"
            y="0px"
            width="30px"
            height="30px"
            viewBox="0 0 100 100"
            enableBackground="new 0 0 100 100"
            xmlSpace="preserve"
          >
            <path d="M25,10c-5.521,0-10,4.476-10,10c0,5.521,4.479,10,10,10s10-4.479,10-10C35,14.476,30.521,10,25,10z"></path>
            <polygon points="16.667,73.333 16.667,50 10,50 10,90 16.667,90 16.667,80 28.333,80 28.333,90 35,90 35,73.333 "></polygon>
            <path d="M45.58,64.948c-0.319-1.804-2.08-3.281-3.913-3.281H28.333v-25h-6.667v31.667h17.741L43.229,90H50L45.58,64.948z"></path>
            <polygon
              points="90,50 76.667,50 86.667,23.333 80.423,20.993 72.044,43.333 46.667,43.333 46.667,50 36.667,50 36.667,56.667 
                      60,56.667 60,90 66.667,90 66.667,56.667 90,56.667 "
            ></polygon>
            <path d="M60,33.333l7.239-7.002c-1.934-1.934-4.505-2.998-7.239-2.998s-5.306,1.064-7.239,2.998L60,33.333z"></path>
            <path
              d="M71.953,21.618l4.714-4.713c-9.199-9.206-24.128-9.206-33.333,0l4.713,4.713c3.196-3.193,7.441-4.951,11.953-4.951
                      C64.519,16.667,68.763,18.424,71.953,21.618z"
            ></path>
          </svg>