<svg height="30px" width="30px" xmlns="http://www.w3.org/2000/svg" viewBox="0 0 122.88 95.51" xml:space="preserve"><path d="M8.32 0h106.24c4.58 0 8.32 3.74 8.32 8.32v78.87c0 4.57-3.74 8.32-8.32 8.32H8.32C3.74 95.51 0 91.77 0 87.19V8.32C0 3.74 3.74 0 8.32 0m4.28 26.95h96.77v41.08H12.6zm19.61 11.72h5.98v12.44c0 1.23-.18 2.4-.54 3.49q-.54 1.65-1.68 2.88c-.76.82-1.56 1.4-2.4 1.73-1.16.46-2.56.7-4.19.7q-1.41 0-3.09-.21c-1.11-.14-2.05-.42-2.8-.85-.75-.42-1.43-1.02-2.05-1.8s-1.05-1.58-1.28-2.41c-.37-1.33-.56-2.5-.56-3.53V38.67h5.98v12.74c0 1.14.29 2.03.88 2.66.59.64 1.4.96 2.44.96 1.02 0 1.83-.32 2.42-.95.58-.63.88-1.52.88-2.68V38.67zm10.18 0h6.01v20.89h-6.01zm13.2-.35h2.72l-4.89 21.59H50.7zm17.23.35h5.98v12.44c0 1.23-.18 2.4-.54 3.49q-.54 1.65-1.68 2.88c-.76.82-1.56 1.4-2.4 1.73-1.16.46-2.56.7-4.19.7q-1.41 0-3.09-.21c-1.11-.14-2.05-.42-2.8-.85-.75-.42-1.43-1.02-2.05-1.8s-1.05-1.58-1.28-2.41c-.37-1.33-.55-2.5-.55-3.53V38.67h5.98v12.74c0 1.14.29 2.03.88 2.66.59.64 1.4.96 2.44.96 1.02 0 1.83-.32 2.42-.95.58-.63.88-1.52.88-2.68zm8.61 0h6.61l3.43 6.43 3.33-6.43h6.52L95.3 48.79l6.59 10.77h-6.74l-3.8-6.71-3.83 6.71h-6.69l6.68-10.89zM66.87 83.68c-1.78 0-3.22-1.57-3.22-3.5 0-1.94 1.44-3.5 3.22-3.5h39.65c1.78 0 3.22 1.57 3.22 3.5 0 1.94-1.44 3.5-3.22 3.5zm-51.91 0c-1.76 0-3.19-1.57-3.19-3.5 0-1.94 1.43-3.5 3.19-3.5h36.76c1.76 0 3.19 1.57 3.19 3.5 0 1.94-1.43 3.5-3.19 3.5zM117.97 20.1H5.29V88c0 .64.25 1.2.67 1.63.43.42.99.67 1.63.67h108.04c.64 0 1.2-.25 1.63-.67.43-.43.67-.99.67-1.63V20.1zM106.64 6.16a4.11 4.11 0 1 1-4.11 4.11c.01-2.27 1.85-4.11 4.11-4.11m-27.84 0a4.11 4.11 0 1 1 0 8.22 4.11 4.11 0 0 1 0-8.22m13.92 0a4.11 4.11 0 1 1 0 8.22 4.11 4.11 0 0 1 0-8.22" style="fill-rule:evenodd;clip-rule:evenodd"/></svg>
