<?xml version="1.0" encoding="UTF-8"?>
<svg version="1.1" xmlns="http://www.w3.org/2000/svg" width="349" height="307">
<path d="M0 0 C7.75962004 6.13145254 14.26823784 13.02146631 19.51171875 21.421875 C20.02347656 22.23140625 20.53523437 23.0409375 21.0625 23.875 C21.72958984 24.98488281 21.72958984 24.98488281 22.41015625 26.1171875 C26.37415074 30.81164781 32.9685955 30.64680339 38.6875 31.375 C45.92625629 32.38972431 52.48904699 33.5086194 59 37 C59.8353125 37.4434375 60.670625 37.886875 61.53125 38.34375 C76.33592634 46.72712094 84.82358948 58.67958895 90.25 74.6875 C91.1018212 78.44971031 91.69677463 82.15914537 92 86 C92.05414063 86.66515625 92.10828125 87.3303125 92.1640625 88.015625 C92.54790476 97.43720785 89.8339101 106.64486759 86.875 115.5 C85.4274658 120.00585835 84.72655378 124.02473537 84.5 128.75 C83.17598077 154.71229014 70.58918779 179.00625435 51.47119141 196.39013672 C42.79808471 204 42.79808471 204 40 204 C40 204.66 40 205.32 40 206 C22.25118152 215.3991772 5.71101563 221.40073637 -14.625 221.1875 C-16.3884375 221.1865332 -16.3884375 221.1865332 -18.1875 221.18554688 C-27.63314658 221.13778799 -27.63314658 221.13778799 -32.14453125 220.4765625 C-36.20504308 219.97465526 -40.0397387 220.01079573 -44.12036133 220.11621094 C-54.84815453 220.37614917 -63.82126881 219.64517139 -74 216 C-74.90621094 215.69964844 -75.81242187 215.39929688 -76.74609375 215.08984375 C-96.88441029 207.83250971 -111.38399661 191.55379699 -120.4609375 172.6953125 C-130.27206484 150.22000606 -127.44357228 128.38188358 -119.61669922 105.90942383 C-117.71793622 100.39522849 -116.23274421 94.95894822 -115.0625 89.25 C-113.75307617 83.07647765 -111.7398299 77.52793915 -109.0625 71.8125 C-108.73838135 71.11737305 -108.4142627 70.42224609 -108.08032227 69.70605469 C-106.44885129 66.38717659 -104.80752021 63.67445779 -102.28515625 60.9609375 C-99.48268747 57.32970445 -99.40366991 55.34712398 -99.375 50.8125 C-99.13146192 44.08558323 -98.16743161 38.35584674 -96 32 C-95.73445313 31.17113281 -95.46890625 30.34226563 -95.1953125 29.48828125 C-89.6267708 13.79287831 -77.3886611 2.62548314 -63 -5 C-42.95817041 -13.74781744 -18.19616856 -12.62538162 0 0 Z " fill="#030202" transform="translate(195,49)"/>
<path d="M0 0 C7.75962004 6.13145254 14.26823784 13.02146631 19.51171875 21.421875 C20.02347656 22.23140625 20.53523437 23.0409375 21.0625 23.875 C21.72958984 24.98488281 21.72958984 24.98488281 22.41015625 26.1171875 C26.37415074 30.81164781 32.9685955 30.64680339 38.6875 31.375 C45.92625629 32.38972431 52.48904699 33.5086194 59 37 C59.8353125 37.4434375 60.670625 37.886875 61.53125 38.34375 C76.33592634 46.72712094 84.82358948 58.67958895 90.25 74.6875 C91.1018212 78.44971031 91.69677463 82.15914537 92 86 C92.05414063 86.66515625 92.10828125 87.3303125 92.1640625 88.015625 C92.63633644 99.60780364 88.56038834 111.12003157 85 122 C84.67 121.34 84.34 120.68 84 120 C83.34 120 82.68 120 82 120 C81.7834375 120.71929687 81.566875 121.43859375 81.34375 122.1796875 C79.65014802 125.73428235 77.47587958 127.56417731 74.5 130.125 C70.35673705 133.71207259 70.35673705 133.71207259 67 138 C66.01 138 65.02 138 64 138 C63.773125 139.216875 63.54625 140.43375 63.3125 141.6875 C59.73570915 157.28425467 51.70233389 170.27839622 41 182 C40.40574219 182.78375 39.81148437 183.5675 39.19921875 184.375 C28.72476979 196.87736181 12.33779423 203.73115937 -3 208 C-3.80824219 208.22558594 -4.61648437 208.45117188 -5.44921875 208.68359375 C-29.97397402 214.26615186 -54.6876791 207.91597959 -75.8046875 195.328125 C-81.83234366 191.49414043 -86.54916508 187.35680118 -90 181 C-86.08295448 181.58030304 -84.02449381 183.54591511 -81 186 C-61.96700674 199.44036017 -40.34287218 204.80610989 -17.32421875 201.375 C4.83816522 197.40416014 23.64969525 185.44531666 36.9921875 167.2890625 C39.59022509 163.03313321 41.60588289 158.61560908 43.625 154.0625 C44.01945313 153.19431641 44.41390625 152.32613281 44.8203125 151.43164062 C53.35007832 132.36934302 53.39022711 109.54582535 46.93359375 89.7265625 C45.74588788 86.73965864 44.42644896 83.88010539 43 81 C42.24396484 79.39705078 42.24396484 79.39705078 41.47265625 77.76171875 C31.54773525 57.88852399 14.19524953 46.72171305 -6 39 C-21.22341321 33.92552893 -40.83094639 33.99077857 -56 39 C-57.06089844 39.3403125 -58.12179688 39.680625 -59.21484375 40.03125 C-79.54263019 47.18585736 -96.45974807 61.61063907 -106 81 C-106.35835937 81.71800781 -106.71671875 82.43601562 -107.0859375 83.17578125 C-109.80351853 88.92765388 -111.4788103 94.83457206 -113 101 C-113.66 101 -114.32 101 -115 101 C-117.02217319 106.85365923 -118.8592338 112.75240382 -120.625 118.6875 C-120.84309326 119.41187256 -121.06118652 120.13624512 -121.28588867 120.88256836 C-124.98943443 133.43547257 -124.50409926 146.08086173 -123 159 C-123.66 159 -124.32 159 -125 159 C-128.47337874 139.77236768 -125.97275648 124.15888819 -119.61669922 105.90942383 C-117.71793622 100.39522849 -116.23274421 94.95894822 -115.0625 89.25 C-113.75307617 83.07647765 -111.7398299 77.52793915 -109.0625 71.8125 C-108.73838135 71.11737305 -108.4142627 70.42224609 -108.08032227 69.70605469 C-106.44885129 66.38717659 -104.80752021 63.67445779 -102.28515625 60.9609375 C-99.48268747 57.32970445 -99.40366991 55.34712398 -99.375 50.8125 C-99.13146192 44.08558323 -98.16743161 38.35584674 -96 32 C-95.73445313 31.17113281 -95.46890625 30.34226563 -95.1953125 29.48828125 C-89.6267708 13.79287831 -77.3886611 2.62548314 -63 -5 C-42.95817041 -13.74781744 -18.19616856 -12.62538162 0 0 Z " fill="#FAB65F" transform="translate(195,49)"/>
<path d="M0 0 C0.66 0.33 1.32 0.66 2 1 C-0.23738021 3.44077841 -2.75526488 5.32190144 -5.42993164 7.26025391 C-14.80896501 14.11993005 -25.37132997 23.42585563 -27.41796875 35.45703125 C-27.58991391 37.0394251 -27.72883338 38.62599604 -27.82421875 40.21484375 C-28 42 -28 42 -29 43 C-29.23075082 44.34747084 -29.41153063 45.70377565 -29.5625 47.0625 C-29.706875 48.361875 -29.85125 49.66125 -30 51 C-28.02 50.505 -28.02 50.505 -26 50 C-26 49.34 -26 48.68 -26 48 C-15.82781885 39.47067112 -3.23033532 32.11963542 9.82421875 29.46484375 C12.20897458 28.98667888 12.20897458 28.98667888 15.3125 28 C26.40678522 24.99138028 41.10957029 21.47007767 52 26 C52.99 26.66 53.98 27.32 55 28 C57.64421272 28.72397696 60.26787784 29.3881618 62.9375 30 C71.55641311 31.98599618 71.55641311 31.98599618 75 34 C75 34.66 75 35.32 75 36 C75.56847656 36.11859375 76.13695312 36.2371875 76.72265625 36.359375 C83.29718426 38.20881341 88.35888423 42.13248834 93 47 C94.51450894 48.15417968 96.03626083 49.29887713 97.5625 50.4375 C102.00414494 53.9402065 105.70171465 57.78877921 109.375 62.0625 C109.87459229 62.63991943 110.37418457 63.21733887 110.88891602 63.81225586 C114.12338895 67.66339058 116.60059286 71.58113523 119 76 C119.43183594 76.70125 119.86367187 77.4025 120.30859375 78.125 C132.14491879 97.78394817 133.83649716 123.1297757 129.02734375 145.203125 C124.79541816 160.84354963 116.91051072 174.05039303 106 186 C105.40574219 186.78375 104.81148437 187.5675 104.19921875 188.375 C93.72476979 200.87736181 77.33779423 207.73115937 62 212 C61.19175781 212.22558594 60.38351563 212.45117188 59.55078125 212.68359375 C35.02602598 218.26615186 10.3123209 211.91597959 -10.8046875 199.328125 C-16.83234366 195.49414043 -21.54916508 191.35680118 -25 185 C-21.08295448 185.58030304 -19.02449381 187.54591511 -16 190 C3.03299326 203.44036017 24.65712782 208.80610989 47.67578125 205.375 C69.83816522 201.40416014 88.64969525 189.44531666 101.9921875 171.2890625 C104.59022509 167.03313321 106.60588289 162.61560908 108.625 158.0625 C109.01945313 157.19431641 109.41390625 156.32613281 109.8203125 155.43164062 C118.35007832 136.36934302 118.39022711 113.54582535 111.93359375 93.7265625 C110.74588788 90.73965864 109.42644896 87.88010539 108 85 C107.24396484 83.39705078 107.24396484 83.39705078 106.47265625 81.76171875 C96.54773525 61.88852399 79.19524953 50.72171305 59 43 C43.77658679 37.92552893 24.16905361 37.99077857 9 43 C7.93910156 43.3403125 6.87820312 43.680625 5.78515625 44.03125 C-14.54263019 51.18585736 -31.45974807 65.61063907 -41 85 C-41.35835937 85.71800781 -41.71671875 86.43601562 -42.0859375 87.17578125 C-44.80351853 92.92765388 -46.4788103 98.83457206 -48 105 C-48.66 105 -49.32 105 -50 105 C-52.02217319 110.85365923 -53.8592338 116.75240382 -55.625 122.6875 C-55.84309326 123.41187256 -56.06118652 124.13624512 -56.28588867 124.88256836 C-59.98943443 137.43547257 -59.50409926 150.08086173 -58 163 C-58.66 163 -59.32 163 -60 163 C-63.47337874 143.77236768 -60.97275648 128.15888819 -54.61669922 109.90942383 C-52.71793622 104.39522849 -51.23274421 98.95894822 -50.0625 93.25 C-48.75307617 87.07647765 -46.7398299 81.52793915 -44.0625 75.8125 C-43.73838135 75.11737305 -43.4142627 74.42224609 -43.08032227 73.70605469 C-41.44885129 70.38717659 -39.80752021 67.67445779 -37.28515625 64.9609375 C-34.48268747 61.32970445 -34.40366991 59.34712398 -34.375 54.8125 C-34.13146192 48.08558323 -33.16743161 42.35584674 -31 36 C-30.73445313 35.17113281 -30.46890625 34.34226563 -30.1953125 33.48828125 C-25.11997983 19.18302943 -13.55061735 6.7296837 0 0 Z " fill="#C2B09D" transform="translate(130,45)"/>
<path d="M0 0 C0.66 0 1.32 0 2 0 C1.84015625 0.94488281 1.6803125 1.88976562 1.515625 2.86328125 C-0.22285319 15.13434807 0.01207903 28.24162356 4 40 C4.29003906 40.97839844 4.58007812 41.95679688 4.87890625 42.96484375 C8.51522283 54.78667632 13.531732 64.16516678 21.94921875 73.19287109 C24.94357562 76.45797407 26.41841588 78.48276447 27 83 C29.26780807 85.08140833 29.26780807 85.08140833 32 87 C33.0209375 88.1446875 33.0209375 88.1446875 34.0625 89.3125 C50.51474713 104.36455589 74.5133568 109.00350362 96.109375 108.32421875 C109.54303244 107.60474406 123.27813761 103.62978453 135 97 C135.7528125 96.57460937 136.505625 96.14921875 137.28125 95.7109375 C140.70195303 93.5582537 143.87348058 91.16634543 147.0625 88.6875 C147.67416016 88.22666016 148.28582031 87.76582031 148.91601562 87.29101562 C152.83823817 84.24228264 155.34909997 81.26017822 158 77 C159.66588873 74.99935198 161.33257415 72.9993671 163 71 C169.96019233 61.26288162 175.14742193 51.44592668 178.125 39.75 C178.41375 38.8425 178.7025 37.935 179 37 C179.99 36.67 180.98 36.34 182 36 C183.19503067 34.57260226 184.38553135 33.14082695 185.5390625 31.6796875 C187.10484892 29.87945177 188.77632411 28.4429618 190.625 26.9375 C193.49716638 24.57621788 195.17609225 22.26383492 197 19 C197.66 19 198.32 19 199 19 C199.94987482 24.77032801 199.93778744 29.46667957 198.8125 35.1875 C198.67158936 35.92798584 198.53067871 36.66847168 198.38549805 37.43139648 C193.48180675 62.21173948 180.56283983 85.69044042 160 101 C157.234375 102.21875 157.234375 102.21875 155 103 C155 103.66 155 104.32 155 105 C137.25118152 114.3991772 120.71101563 120.40073637 100.375 120.1875 C98.6115625 120.1865332 98.6115625 120.1865332 96.8125 120.18554688 C87.36685342 120.13778799 87.36685342 120.13778799 82.85546875 119.4765625 C78.79495692 118.97465526 74.9602613 119.01079573 70.87963867 119.11621094 C60.15184547 119.37614917 51.17873119 118.64517139 41 115 C40.09378906 114.69964844 39.18757813 114.39929688 38.25390625 114.08984375 C17.69540019 106.68108416 3.79059969 90.32175796 -5.5546875 71.26171875 C-7.60380529 66.63735833 -9.29375573 62.60612655 -9.0625 57.5 C-8.95492188 54.91812504 -9.04780544 52.71705399 -9.48046875 50.15625 C-12.29996438 33.02728408 -7.66843388 15.33686777 0 0 Z " fill="#844FCE" transform="translate(80,150)"/>
<path d="M0 0 C0.87785156 -0.00257812 1.75570312 -0.00515625 2.66015625 -0.0078125 C4.03880859 0.00378906 4.03880859 0.00378906 5.4453125 0.015625 C6.35667969 0.00789063 7.26804688 0.00015625 8.20703125 -0.0078125 C9.08746094 -0.00523438 9.96789062 -0.00265625 10.875 0 C11.67921387 0.00225586 12.48342773 0.00451172 13.31201172 0.00683594 C17.0054684 0.43008611 19.0079143 1.56262724 21.3203125 4.453125 C22.84566492 7.88516795 22.65772113 10.54638776 22.5703125 14.265625 C23.36203857 14.2342041 24.15376465 14.2027832 24.96948242 14.17041016 C28.56530045 14.04549863 32.16066215 13.96758899 35.7578125 13.890625 C37.00369141 13.84035156 38.24957031 13.79007813 39.53320312 13.73828125 C48.25473385 13.59798853 48.25473385 13.59798853 51.52734375 15.25878906 C55.04733421 18.79637947 55.21966059 23.17730057 55.25390625 27.96484375 C55.22490234 29.35123047 55.22490234 29.35123047 55.1953125 30.765625 C55.21464844 31.68988281 55.23398438 32.61414063 55.25390625 33.56640625 C55.2222712 37.98898628 55.0561635 41.2901079 52.28125 44.859375 C47.73615134 48.89364124 43.39620861 48.40397065 37.5234375 48.36328125 C36.75223572 48.3618663 35.98103394 48.36045135 35.1864624 48.35899353 C32.73103912 48.35341034 30.27570808 48.34086095 27.8203125 48.328125 C26.15234507 48.32310783 24.48437621 48.3185453 22.81640625 48.31445312 C18.73433963 48.30344641 14.65234169 48.28619336 10.5703125 48.265625 C9.9103125 46.285625 9.2503125 44.305625 8.5703125 42.265625 C6.9203125 42.265625 5.2703125 42.265625 3.5703125 42.265625 C2.9103125 44.245625 2.2503125 46.225625 1.5703125 48.265625 C-3.42840872 48.36498036 -8.42654705 48.43732122 -13.42602539 48.48535156 C-15.12436952 48.50538721 -16.82264535 48.53262385 -18.52075195 48.56738281 C-20.9710379 48.61625915 -23.4204069 48.63867372 -25.87109375 48.65625 C-26.99808434 48.68721771 -26.99808434 48.68721771 -28.14784241 48.71881104 C-33.67124062 48.72112804 -36.87923484 47.42279738 -41.4296875 44.265625 C-43.48219189 40.16061622 -42.70288584 34.90245556 -42.7421875 30.390625 C-42.77119141 29.28847656 -42.80019531 28.18632812 -42.83007812 27.05078125 C-42.83845703 25.98988281 -42.84683594 24.92898437 -42.85546875 23.8359375 C-42.87005127 22.86414551 -42.88463379 21.89235352 -42.8996582 20.89111328 C-42.27897728 17.42368331 -41.29180243 16.29257509 -38.4296875 14.265625 C-35.49707031 13.81152344 -35.49707031 13.81152344 -32.1328125 13.875 C-30.32490234 13.89433594 -30.32490234 13.89433594 -28.48046875 13.9140625 C-27.22621094 13.94757813 -25.97195312 13.98109375 -24.6796875 14.015625 C-23.40996094 14.03367188 -22.14023438 14.05171875 -20.83203125 14.0703125 C-17.69715673 14.11745347 -14.5638019 14.18324836 -11.4296875 14.265625 C-11.47867188 13.16863281 -11.52765625 12.07164062 -11.578125 10.94140625 C-11.4296875 7.265625 -11.4296875 7.265625 -9.0546875 4.453125 C-7.7553125 3.3703125 -7.7553125 3.3703125 -6.4296875 2.265625 C-3.99255631 -0.17150619 -3.34034956 0.0093962 0 0 Z " fill="#FCFCFC" transform="translate(159.4296875,121.734375)"/>
<path d="M0 0 C14.19 0.33 28.38 0.66 43 1 C43.495 3.97 43.495 3.97 44 7 C45.32 7 46.64 7 48 7 C48.33 5.02 48.66 3.04 49 1 C62.53 1 76.06 1 90 1 C90.061875 5.351875 90.12375 9.70375 90.1875 14.1875 C90.22846802 16.23360474 90.22846802 16.23360474 90.27026367 18.32104492 C90.27775635 19.40490479 90.28524902 20.48876465 90.29296875 21.60546875 C90.3086792 22.71043701 90.32438965 23.81540527 90.34057617 24.95385742 C89.95085192 28.43958462 89.14610174 30.2421095 87 33 C83.39339709 35.44562469 80.00978026 35.25962435 75.74047852 35.2746582 C75.01640808 35.27976913 74.29233765 35.28488007 73.54632568 35.29014587 C71.15710137 35.30402541 68.76816605 35.30308639 66.37890625 35.30078125 C64.71508172 35.30466906 63.05125817 35.30900391 61.38743591 35.31376648 C57.90140566 35.32122513 54.41547668 35.32093998 50.92944336 35.31567383 C46.46605616 35.30987933 42.00308395 35.32681123 37.53976536 35.3500185 C34.1039132 35.36476282 30.66816083 35.3656266 27.23228264 35.36250877 C25.58687455 35.36302163 23.94146082 35.36825261 22.29608345 35.37832069 C19.99342135 35.39068174 17.69156558 35.38389607 15.38891602 35.37231445 C13.42511742 35.37325859 13.42511742 35.37325859 11.42164612 35.3742218 C7.7945227 34.97752717 5.85429337 34.24306966 3 32 C3 31.34 3 30.68 3 30 C2.34 30 1.68 30 1 30 C-0.40912096 27.18175808 -0.11183553 24.82748718 -0.09765625 21.6796875 C-0.09515869 20.54772949 -0.09266113 19.41577148 -0.09008789 18.24951172 C-0.08098389 16.80592285 -0.07187988 15.36233398 -0.0625 13.875 C-0.041875 9.29625 -0.02125 4.7175 0 0 Z " fill="#FBFBFB" transform="translate(120,177)"/>
<path d="M0 0 C0.48146484 0.72703125 0.48146484 0.72703125 0.97265625 1.46875 C4.13538976 3.85755835 7.62127993 3.44716003 11.4375 3.5 C18.95548833 3.74122292 25.78423305 4.75037854 33 7 C33 7.66 33 8.32 33 9 C34.98 9.66 36.96 10.32 39 11 C39 11.66 39 12.32 39 13 C41.475 13.495 41.475 13.495 44 14 C44 14.66 44 15.32 44 16 C44.99 16.165 45.98 16.33 47 16.5 C53.16951394 18.24301308 57.44863394 23.59270784 60.8125 28.8125 C61.4003125 29.8953125 61.4003125 29.8953125 62 31 C62.47695313 31.44859375 62.95390625 31.8971875 63.4453125 32.359375 C69.90249513 39.17348733 70.93063719 51.42612807 71.3125 60.375 C71.02052014 71.15878958 67.32529131 81.8384499 64 92 C63.67 91.34 63.34 90.68 63 90 C62.34 90 61.68 90 61 90 C60.7834375 90.71929687 60.566875 91.43859375 60.34375 92.1796875 C58.65014802 95.73428235 56.47587958 97.56417731 53.5 100.125 C49.35673705 103.71207259 49.35673705 103.71207259 46 108 C45.01 107.67 44.02 107.34 43 107 C43.15984375 105.8759375 43.3196875 104.751875 43.484375 103.59375 C46.71138764 77.54878275 40.97017491 52.75360673 25.12109375 31.69140625 C18.89055841 23.78562568 12.5239258 17.55605299 4.30859375 11.8125 C3.54675781 11.214375 2.78492188 10.61625 2 10 C2 9.34 2 8.68 2 8 C0.68 7.67 -0.64 7.34 -2 7 C-2 6.34 -2 5.68 -2 5 C-1.01 4.67 -0.02 4.34 1 4 C0.67 2.68 0.34 1.36 0 0 Z " fill="#D55A7F" transform="translate(216,79)"/>
<path d="M0 0 C0.66 0 1.32 0 2 0 C2.94987482 5.77032801 2.93778744 10.46667957 1.8125 16.1875 C1.67158936 16.92798584 1.53067871 17.66847168 1.38549805 18.43139648 C-3.51819325 43.21173948 -16.43716017 66.69044042 -37 82 C-39.765625 83.21875 -39.765625 83.21875 -42 84 C-42 84.66 -42 85.32 -42 86 C-44.56126064 87.294174 -47.12393358 88.58540784 -49.6875 89.875 C-50.7693457 90.42220703 -50.7693457 90.42220703 -51.87304688 90.98046875 C-62.09844693 96.11651444 -62.09844693 96.11651444 -67.6875 96.5625 C-70.96670656 96.82308475 -70.96670656 96.82308475 -74 98 C-77.08005912 98.31500605 -80.16099912 98.51083648 -83.25 98.71875 C-85.95865993 98.83187492 -85.95865993 98.83187492 -88 100 C-89.45066629 100.09539121 -90.90557726 100.1307348 -92.359375 100.1328125 C-93.22820312 100.13410156 -94.09703125 100.13539063 -94.9921875 100.13671875 C-95.90226562 100.13285156 -96.81234375 100.12898438 -97.75 100.125 C-98.64460937 100.12886719 -99.53921875 100.13273437 -100.4609375 100.13671875 C-105.0873727 100.1298951 -109.44928696 99.94932093 -114 99 C-111.09618971 97.5012592 -108.15996899 96.2102057 -105.125 95 C-103.81208984 94.47599609 -103.81208984 94.47599609 -102.47265625 93.94140625 C-100.52857649 93.20124318 -98.5499413 92.55180004 -96.5625 91.9375 C-93.99600189 91.240832 -93.99600189 91.240832 -92.7890625 89.55078125 C-90.15556904 87.26803692 -87.13692358 86.93406713 -83.8125 86.25 C-58.54081651 80.39098704 -42.06319154 64.97445401 -28.16088867 43.40039062 C-23.79885946 36.35690362 -20.91597761 28.76696006 -18.875 20.75 C-18.58625 19.8425 -18.2975 18.935 -18 18 C-17.01 17.67 -16.02 17.34 -15 17 C-13.80496933 15.57260226 -12.61446865 14.14082695 -11.4609375 12.6796875 C-9.89515108 10.87945177 -8.22367589 9.4429618 -6.375 7.9375 C-3.50283362 5.57621788 -1.82390775 3.26383492 0 0 Z " fill="#3971F1" transform="translate(277,169)"/>
<path d="M0 0 C-0.6875 1.875 -0.6875 1.875 -2 4 C-2.763125 4.28101562 -3.52625 4.56203125 -4.3125 4.8515625 C-9.40251634 7.02665669 -12.50391689 11.83966109 -16 16 C-16.7321875 16.85851562 -17.464375 17.71703125 -18.21875 18.6015625 C-33.20816861 36.66716777 -35.24794807 58.27170336 -34 81 C-32.89285713 91.36213717 -30.22696983 100.53026561 -24 109 C-23.17460099 110.18838388 -22.35189054 111.37863768 -21.53125 112.5703125 C-16.99150227 119.23656512 -16.99150227 119.23656512 -11.6953125 125.2890625 C-10 127 -10 127 -10 129 C-8.9171875 129.37125 -8.9171875 129.37125 -7.8125 129.75 C-5 131 -5 131 -2.81640625 132.79296875 C7.65522458 140.99889305 19.0136649 145.02649996 32 147 C32.66 147.33 33.32 147.66 34 148 C45.03553272 148.79474001 55.39663504 148.10686341 66.1875 145.625 C67.14946289 145.40376465 68.11142578 145.1825293 69.10253906 144.95458984 C72.59378744 144.1141662 72.59378744 144.1141662 76 143 C76.33 142.34 76.66 141.68 77 141 C78.43198582 140.23981 79.89715268 139.54166298 81.375 138.875 C91.62555324 133.87401682 102.74793513 126.24690864 108.625 116.23046875 C109.07875 115.49441406 109.5325 114.75835937 110 114 C110.66 114 111.32 114 112 114 C111.9175 113.2575 111.835 112.515 111.75 111.75 C112 109 112 109 113.8828125 107.265625 C116.60666338 104.35080303 117.15496087 101.84755016 118.125 98 C119.8385574 91.31570997 119.8385574 91.31570997 121.0546875 88.9375 C127.39098982 75.95069856 122.03869676 54.79334475 120 41 C128.55218223 53.82827334 127.6587408 75.4672426 124.75 90.15234375 C118.75953444 112.89739268 106.12377648 132.07577749 85.92578125 144.33984375 C66.91679027 155.12598683 45.02144996 159.67465043 23.5 154.3125 C6.39488513 149.57865102 -8.2710772 141.42653005 -20 128 C-20.42796875 127.51015625 -20.8559375 127.0203125 -21.296875 126.515625 C-31.30127104 114.86344609 -36.31169246 101.80997334 -40 87 C-40.19207031 86.23816406 -40.38414063 85.47632813 -40.58203125 84.69140625 C-43.68750531 64.69447512 -39.81666111 42.53953837 -28.44921875 25.703125 C-26.72103828 23.37688685 -24.89858189 21.18955229 -23 19 C-22.16210938 18.01773438 -21.32421875 17.03546875 -20.4609375 16.0234375 C-6.48654568 0 -6.48654568 0 0 0 Z " fill="#323135" transform="translate(121,96)"/>
<path d="M0 0 C1.62028932 3.24057864 0.00163596 5.91334376 -1.0703125 9.23828125 C-1.53050781 10.60533203 -1.53050781 10.60533203 -2 12 C-2.24492187 12.77730469 -2.48984375 13.55460938 -2.7421875 14.35546875 C-6.61823119 25.37450725 -14.18171493 35.43711635 -22 44 C-22.59425781 44.78375 -23.18851563 45.5675 -23.80078125 46.375 C-34.27523021 58.87736181 -50.66220577 65.73115937 -66 70 C-66.80824219 70.22558594 -67.61648437 70.45117188 -68.44921875 70.68359375 C-92.97397402 76.26615186 -117.6876791 69.91597959 -138.8046875 57.328125 C-144.83234366 53.49414043 -149.54916508 49.35680118 -153 43 C-149.08295448 43.58030304 -147.02449381 45.54591511 -144 48 C-124.96700674 61.44036017 -103.34287218 66.80610989 -80.32421875 63.375 C-58.14729887 59.40155573 -39.32534819 47.42968949 -25.984375 29.25390625 C-23.50685278 25.19135506 -21.6293287 20.98921888 -19.75 16.625 C-19.38648438 15.79355469 -19.02296875 14.96210938 -18.6484375 14.10546875 C-17.76046942 12.07248921 -16.87781678 10.03737824 -16 8 C-14.35 8 -12.7 8 -11 8 C-11 7.34 -11 6.68 -11 6 C-7.37 4.02 -3.74 2.04 0 0 Z " fill="#A7BEF1" transform="translate(258,187)"/>
<path d="M0 0 C6.22154005 0.25977203 11.1063404 1.21132318 16.69921875 3.953125 C19.94839561 5.43152805 23.30135386 6.34819671 26.73828125 7.2890625 C30.93088594 8.60694515 33.3909295 10.29605635 36.41015625 13.48046875 C38.33723444 15.32231989 40.4269993 16.84185387 42.5625 18.4375 C47.00414494 21.9402065 50.70171465 25.78877921 54.375 30.0625 C54.87459229 30.63991943 55.37418457 31.21733887 55.88891602 31.81225586 C59.12338895 35.66339058 61.60059286 39.58113523 64 44 C64.64775391 45.051875 64.64775391 45.051875 65.30859375 46.125 C75.37545447 62.84504548 76.80684202 81.94363901 76 101 C75.97220459 101.74693115 75.94440918 102.4938623 75.91577148 103.26342773 C75.66699889 106.61359095 75.40505873 108.56700619 73.07421875 111.05859375 C72.28660156 111.51363281 71.49898438 111.96867187 70.6875 112.4375 C69.90761719 112.91058594 69.12773437 113.38367188 68.32421875 113.87109375 C66.19805387 114.90380241 64.30968189 115.54017775 62 116 C62 116.66 62 117.32 62 118 C60.68 118 59.36 118 58 118 C58.28875 117.00484375 58.5775 116.0096875 58.875 114.984375 C64.36941037 94.84064886 64.18361503 71.11084262 55 52 C53.46228331 48.56022955 53 46.88250538 53 43 C52.01 42.67 51.02 42.34 50 42 C49.27954236 40.0187415 48.61998741 38.01495907 48 36 C47.01120795 34.32665961 46.01351664 32.65848177 45 31 C45 30.34 45 29.68 45 29 C44.01 28.67 43.02 28.34 42 28 C42 27.34 42 26.68 42 26 C41.4225 25.7525 40.845 25.505 40.25 25.25 C37.67060021 23.81700012 35.93878408 22.21575324 34 20 C34 19.34 34 18.68 34 18 C33.236875 17.71125 32.47375 17.4225 31.6875 17.125 C29 16 29 16 26 14 C26 13.34 26 12.68 26 12 C25.13117188 11.73058594 24.26234375 11.46117188 23.3671875 11.18359375 C20.10387716 10.03651367 17.18916205 8.65960303 14.125 7.0625 C9.48746545 4.69747303 4.91610598 2.70172899 0 1 C0 0.67 0 0.34 0 0 Z " fill="#ECB8C7" transform="translate(185,77)"/>
<path d="M0 0 C7.47394574 -0.37369729 13.82140651 0.95938459 21 3 C21 3.66 21 4.32 21 5 C22.98 5.66 24.96 6.32 27 7 C27 7.66 27 8.32 27 9 C29.475 9.495 29.475 9.495 32 10 C32 10.66 32 11.32 32 12 C32.99 12.165 33.98 12.33 35 12.5 C41.16951394 14.24301308 45.44863394 19.59270784 48.8125 24.8125 C49.4003125 25.8953125 49.4003125 25.8953125 50 27 C50.47695313 27.44859375 50.95390625 27.8971875 51.4453125 28.359375 C57.90249513 35.17348733 58.93063719 47.42612807 59.3125 56.375 C59.02052014 67.15878958 55.32529131 77.8384499 52 88 C51.67 88 51.34 88 51 88 C50.91363281 86.92105469 50.82726562 85.84210938 50.73828125 84.73046875 C49.80582098 74.40713367 47.86490489 64.78011726 45.0234375 54.81640625 C44 51 44 51 44 48 C43.34 48 42.68 48 42 48 C41.54109375 47.04738281 41.0821875 46.09476563 40.609375 45.11328125 C39.98991026 43.84619428 39.37010019 42.5792761 38.75 41.3125 C38.44964844 40.68666016 38.14929688 40.06082031 37.83984375 39.41601562 C35.93077282 35.53694596 33.80043786 32.32814349 31 29 C30.5359375 28.01 30.5359375 28.01 30.0625 27 C28.00196214 23.1213405 24.61054534 20.4748686 21.1875 17.8125 C20.465625 17.214375 19.74375 16.61625 19 16 C19 15.34 19 14.68 19 14 C18.443125 13.773125 17.88625 13.54625 17.3125 13.3125 C15 12 15 12 12.875 9.75 C9.53959099 6.55960877 6.01057154 4.49941862 2.01171875 2.234375 C1.34785156 1.82703125 0.68398437 1.4196875 0 1 C0 0.67 0 0.34 0 0 Z " fill="#FA7986" transform="translate(228,83)"/>
<path d="M0 0 C3.5422568 2.38896389 6.75050584 4.93851168 8.6875 8.8125 C8.86353147 11.22499692 8.95494968 13.64400895 9 16.0625 C9.05607422 18.01929688 9.05607422 18.01929688 9.11328125 20.015625 C8.62265164 24.39078077 7.44244671 26.42714206 4.6875 29.8125 C-0.46815028 33.89405647 -4.83345256 34.49916025 -11.3671875 34.26171875 C-15.87304575 33.57448573 -19.0250113 31.9513083 -22.3125 28.8125 C-25.41141807 24.21410544 -26.69166403 19.36285407 -26.09765625 13.80078125 C-24.82927865 7.45889327 -21.97167174 3.6677361 -16.625 -0.0625 C-10.94308269 -1.99220777 -5.65535684 -2.02739208 0 0 Z " fill="#5083F2" transform="translate(226.3125,4.1875)"/>
<path d="M0 0 C0.66 0.33 1.32 0.66 2 1 C-0.23738021 3.44077841 -2.75526488 5.32190144 -5.42993164 7.26025391 C-14.80896501 14.11993005 -25.37132997 23.42585563 -27.41796875 35.45703125 C-27.58991391 37.0394251 -27.72883338 38.62599604 -27.82421875 40.21484375 C-28 42 -28 42 -29 43 C-29.23075082 44.34747084 -29.41153063 45.70377565 -29.5625 47.0625 C-29.706875 48.361875 -29.85125 49.66125 -30 51 C-28.02 50.505 -28.02 50.505 -26 50 C-26 49.34 -26 48.68 -26 48 C-15.82781885 39.47067112 -3.23033532 32.11963542 9.82421875 29.46484375 C12.20897458 28.98667888 12.20897458 28.98667888 15.3125 28 C25.40320484 25.26353767 35.60576217 24.53959158 46 24 C46.495 24.99 46.495 24.99 47 26 C42.71202886 27.59341526 38.92322151 28.27203381 34.375 28.625 C26.21432648 29.46631684 18.44224887 31.58737628 10.5625 33.8125 C8.7678833 34.30967529 8.7678833 34.30967529 6.93701172 34.81689453 C-2.67313605 37.60771688 -10.2727229 41.18339543 -17.875 47.75 C-22.6972973 51.8990991 -22.6972973 51.8990991 -26 53 C-26 53.66 -26 54.32 -26 55 C-26.804375 55.763125 -27.60875 56.52625 -28.4375 57.3125 C-31.90597941 60.95017352 -31.93324964 63.29786579 -32.125 68.1875 C-33.00752523 72.03278851 -33.95488113 73.58759919 -36.25 76.6875 C-42.53119617 85.18256039 -45.53589591 94.82304976 -48 105 C-48.66 105 -49.32 105 -50 105 C-52.02217319 110.85365923 -53.8592338 116.75240382 -55.625 122.6875 C-55.84309326 123.41187256 -56.06118652 124.13624512 -56.28588867 124.88256836 C-59.98943443 137.43547257 -59.50409926 150.08086173 -58 163 C-58.66 163 -59.32 163 -60 163 C-63.47337874 143.77236768 -60.97275648 128.15888819 -54.61669922 109.90942383 C-52.71793622 104.39522849 -51.23274421 98.95894822 -50.0625 93.25 C-48.75307617 87.07647765 -46.7398299 81.52793915 -44.0625 75.8125 C-43.73838135 75.11737305 -43.4142627 74.42224609 -43.08032227 73.70605469 C-41.44885129 70.38717659 -39.80752021 67.67445779 -37.28515625 64.9609375 C-34.48268747 61.32970445 -34.40366991 59.34712398 -34.375 54.8125 C-34.13146192 48.08558323 -33.16743161 42.35584674 -31 36 C-30.73445313 35.17113281 -30.46890625 34.34226563 -30.1953125 33.48828125 C-25.11997983 19.18302943 -13.55061735 6.7296837 0 0 Z " fill="#F7BD74" transform="translate(130,45)"/>
<path d="M0 0 C3.86692489 3.17554123 6.65166468 5.95828186 7.3046875 11.09765625 C7.32931879 16.36875331 7.17283782 20.29396455 4.00390625 24.73046875 C-1.34125635 28.85069826 -5.25725334 30.18733929 -11.99609375 29.73046875 C-17.67158928 27.68729036 -21.29483096 24.13299434 -23.99609375 18.73046875 C-24.58715862 13.04715267 -24.26852791 8.58269872 -20.99609375 3.73046875 C-15.22456194 -1.88507571 -7.24107048 -4.60537751 0 0 Z " fill="#FC8691" transform="translate(72.99609375,97.26953125)"/>
<path d="M0 0 C3.91704552 0.58030304 5.97550619 2.54591511 9 5 C28.03299326 18.44036017 49.65712782 23.80610989 72.67578125 20.375 C82.39639791 18.62564388 90.86497673 15.10372154 99.62109375 10.609375 C103 9 103 9 106 9 C102.89851315 12.98762595 100.46449274 15.53278033 96 18 C95.46375 18.556875 94.9275 19.11375 94.375 19.6875 C93 21 93 21 90 21 C90 21.99 90 22.98 90 24 C87.20388118 27.67769768 84.02587829 27.9739627 79.65234375 28.640625 C53.83381095 31.18105817 28.81108965 26.15051303 8 10 C4.5784047 6.95031723 2.18544972 4.02582844 0 0 Z " fill="#B5A3E0" transform="translate(105,230)"/>
<path d="M0 0 C0.78246094 -0.01417969 1.56492187 -0.02835937 2.37109375 -0.04296875 C4.5625 0.1875 4.5625 0.1875 7.5625 2.1875 C10.20671272 2.91147696 12.83037784 3.5756618 15.5 4.1875 C24.11891311 6.17349618 24.11891311 6.17349618 27.5625 8.1875 C27.5625 8.8475 27.5625 9.5075 27.5625 10.1875 C28.160625 10.290625 28.75875 10.39375 29.375 10.5 C31.84493264 11.27626455 32.88501235 12.25838921 34.5625 14.1875 C30.22354387 13.24081866 26.37599106 12.18381235 22.375 10.25 C3.99487253 2.00528852 -17.56848575 4.47940779 -36.4375 10.1875 C-37.4275 10.8475 -38.4175 11.5075 -39.4375 12.1875 C-41.42549818 12.88914642 -43.42448517 13.56122872 -45.4375 14.1875 C-45.4375 15.1775 -45.4375 16.1675 -45.4375 17.1875 C-43.82875 16.4759375 -43.82875 16.4759375 -42.1875 15.75 C-36.74971133 13.67659857 -31.20308787 13.46617008 -25.4375 13.1875 C-28.35971865 15.13564577 -29.49284836 15.49819219 -32.8125 16 C-52.54119893 19.75102984 -66.68278336 31.35909738 -80.4375 45.1875 C-81.29816329 35.50981944 -81.29816329 35.50981944 -78.0625 31.5625 C-75.4375 29.1875 -75.4375 29.1875 -73.4375 29.1875 C-73.4375 28.5275 -73.4375 27.8675 -73.4375 27.1875 C-55.48172626 10.93168117 -33.20675796 3.62457631 -9.25390625 1.4765625 C-5.9155169 1.13392615 -3.43592409 0.02820956 0 0 Z " fill="#C4A178" transform="translate(177.4375,70.8125)"/>
<path d="M0 0 C0.66 0 1.32 0 2 0 C1.84015625 0.94488281 1.6803125 1.88976562 1.515625 2.86328125 C-0.22285319 15.13434807 0.01207903 28.24162356 4 40 C4.29003906 40.97839844 4.58007812 41.95679688 4.87890625 42.96484375 C8.53842097 54.86209453 13.63272787 64.23592402 22.03710938 73.36865234 C26 77.71259014 26 77.71259014 26 81 C25.67 81.66 25.34 82.32 25 83 C22.5625 82.1875 22.5625 82.1875 20 81 C19.67 80.01 19.34 79.02 19 78 C18.34 78 17.68 78 17 78 C14.73771794 75.55039522 12.91807276 72.72256244 11 70 C10.36449219 69.14019531 9.72898437 68.28039062 9.07421875 67.39453125 C-0.31122152 54.18201825 -6.21555885 39.35852178 -6 23 C-6.66 23 -7.32 23 -8 23 C-6.05797655 14.97928527 -3.33160505 7.54549287 0 0 Z " fill="#9667D7" transform="translate(80,150)"/>
<path d="M0 0 C3.80072345 1.70032365 6.92969697 3.67142261 10.25 6.1875 C31.19979029 20.96821901 54.11643678 22.75749051 79 22 C76.07647254 25.06435992 74.19281701 26.56855528 70.0625 27.625 C67.44872755 28.31177174 65.02663384 28.98848267 62.54296875 30.0625 C56.31426198 32.35879743 49.17586299 31.87779808 43.1875 29.125 C42.46820313 28.75503906 41.74890625 28.38507813 41.0078125 28.00390625 C38.82980286 26.83286717 38.82980286 26.83286717 35.5625 26.0625 C30.73383187 24.62237091 26.44621615 22.34388055 22 20 C22 19.34 22 18.68 22 18 C21.2575 17.9175 20.515 17.835 19.75 17.75 C16.39748585 16.83567796 15.40359308 15.47364315 13 13 C11.32942476 11.62500837 9.6412302 10.27118925 7.9375 8.9375 C1.9223365 4.22486814 1.9223365 4.22486814 0 2 C0 1.34 0 0.68 0 0 Z " fill="#5B2FC9" transform="translate(107,236)"/>
<path d="M0 0 C1.80266874 5.40800622 -1.66078946 10.89193113 -3.94775391 15.89648438 C-8.34208321 24.68106472 -14.39639789 32.7674834 -21 40 C-21.59425781 40.78375 -22.18851563 41.5675 -22.80078125 42.375 C-32.44467918 53.88601139 -47.71616184 61.19097649 -62 65 C-62.99 64.67 -63.98 64.34 -65 64 C-63.515 63.505 -63.515 63.505 -62 63 C-62 62.01 -62 61.02 -62 60 C-60.36935236 58.94228261 -58.69719127 57.94726954 -57 57 C-56.505 56.505 -56.01 56.01 -55.5 55.5 C-53.56503396 53.56503396 -51.34110827 52.40466496 -49 51 C-47.24850835 49.41754725 -47.24850835 49.41754725 -46 48 C-45 51 -45 51 -46 54 C-41.85329961 51.62370911 -41.85329961 51.62370911 -39 48 C-38.0925 47.566875 -37.185 47.13375 -36.25 46.6875 C-32.77452988 44.88292898 -30.71436719 42.7857979 -28 40 C-27.278125 39.67 -26.55625 39.34 -25.8125 39 C-23.20732914 37.56266435 -23.0813426 35.76343109 -22 33 C-20.51064203 30.89930777 -18.94308223 28.88201532 -17.33984375 26.8671875 C-15.81385317 24.93516371 -15.81385317 24.93516371 -15 22 C-14.34 22 -13.68 22 -13 22 C-12.7525 21.154375 -12.505 20.30875 -12.25 19.4375 C-9.95568161 13.12812442 -6.72658262 8.41143444 -2.26953125 3.48046875 C-0.90276639 2.00782142 -0.90276639 2.00782142 0 0 Z " fill="#90B3F8" transform="translate(257,191)"/>
<path d="M0 0 C7.36114882 0.22306512 13.21031366 7.08086267 18 12 C18.845625 12.66 19.69125 13.32 20.5625 14 C26.21357852 18.63678238 30.75881479 24.75975292 32 32 C32.99 32.495 32.99 32.495 34 33 C35.08702544 35.69984037 36.06989453 38.37151944 37 41.125 C37.26039063 41.87265625 37.52078125 42.6203125 37.7890625 43.390625 C42.17676127 56.1105194 44.17024521 68.26573509 44.25 81.6875 C44.26377686 82.99787231 44.26377686 82.99787231 44.27783203 84.3347168 C44.27380371 85.15625244 44.26977539 85.97778809 44.265625 86.82421875 C44.26336914 87.55729248 44.26111328 88.29036621 44.25878906 89.0456543 C44 91 44 91 42 94 C42.02356567 93.13387085 42.02356567 93.13387085 42.04760742 92.25024414 C42.45700282 74.8086181 41.88469038 58.91976996 34 43 C33.49597656 41.93136719 32.99195313 40.86273438 32.47265625 39.76171875 C23.53444227 21.86425969 8.26328759 10.38303115 -10 3 C-7.77594342 2.42339274 -5.57276987 1.92051532 -3.3125 1.5 C-1.04844958 1.22901669 -1.04844958 1.22901669 0 0 Z " fill="#C09CA5" transform="translate(204,87)"/>
<path d="M0 0 C1.125 1.625 1.125 1.625 2 4 C1.25408661 8.00928445 -0.51642933 10.84405147 -2.8125 14.125 C-8.61675427 22.56240376 -11.60856961 32.12319806 -14 42 C-14.66 42 -15.32 42 -16 42 C-18.02217319 47.85365923 -19.8592338 53.75240382 -21.625 59.6875 C-21.84309326 60.41187256 -22.06118652 61.13624512 -22.28588867 61.88256836 C-25.98943443 74.43547257 -25.50409926 87.08086173 -24 100 C-24.66 100 -25.32 100 -26 100 C-29.47337874 80.77236768 -26.97275648 65.15888819 -20.61669922 46.90942383 C-18.71798516 41.39537061 -17.23171268 35.95909847 -16.0625 30.25 C-13.98818358 20.39171137 -9.87514082 8.54588626 -3 1 C-2.01 0.67 -1.02 0.34 0 0 Z " fill="#C9BBD6" transform="translate(96,108)"/>
<path d="M0 0 C2.84184469 2.47750563 3.79819194 4.36766808 4.9375 7.9375 C5.01528829 11.74912637 3.97686274 13.77844591 2 17 C-0.35858628 19.35858628 -1.07631948 19.36946499 -4.3125 19.5 C-8.16570046 19.39417705 -8.90882876 19.07111357 -12.125 16.5625 C-14.4821636 13.11678516 -14.43803409 10.07802033 -13.69921875 6.05859375 C-13 4 -13 4 -10.9375 1.4375 C-6.80051169 -0.58698364 -4.59113761 -0.6558768 0 0 Z " fill="#F7C179" transform="translate(234,278)"/>
<path d="M0 0 C0.99 0 1.98 0 3 0 C3.08735463 4.54154478 3.14051247 9.08287232 3.1875 13.625 C3.21263672 14.91019531 3.23777344 16.19539063 3.26367188 17.51953125 C3.27333984 18.76347656 3.28300781 20.00742188 3.29296875 21.2890625 C3.3086792 22.43068848 3.32438965 23.57231445 3.34057617 24.74853516 C2.9447138 28.52781478 2.06490817 30.81427012 0 34 C-4.04706567 37.11637072 -7.61240211 37.43611556 -12.55664062 37.40405273 C-13.30036423 37.41091599 -14.04408783 37.41777924 -14.81034851 37.42485046 C-17.25917867 37.44309364 -19.70736673 37.43928515 -22.15625 37.43359375 C-23.86348681 37.43815635 -25.57072179 37.44346216 -27.2779541 37.44947815 C-30.85220818 37.45840404 -34.42623874 37.45599165 -38.00048828 37.44604492 C-42.57719752 37.43454846 -47.15313597 37.45477932 -51.72974396 37.48396206 C-55.25397629 37.50232039 -58.77802372 37.50203249 -62.30229187 37.49632454 C-63.98956891 37.49617132 -65.67685848 37.50221636 -67.36408997 37.51461601 C-69.72433672 37.52952004 -72.08315681 37.51885532 -74.44335938 37.50170898 C-75.13753464 37.51137695 -75.8317099 37.52104492 -76.54692078 37.53100586 C-81.28034709 37.45911941 -83.62579646 36.27591368 -87 33 C-86.67 32.01 -86.34 31.02 -86 30 C-85.54625 30.474375 -85.0925 30.94875 -84.625 31.4375 C-81.31864183 34.61669054 -78.43040922 34.13792172 -73.9675293 34.16113281 C-73.24375092 34.16609772 -72.51997253 34.17106262 -71.77426147 34.17617798 C-69.37423763 34.19081043 -66.97427992 34.19760388 -64.57421875 34.203125 C-62.9075368 34.20887619 -61.24085488 34.21463393 -59.57417297 34.22039795 C-56.0762196 34.23091145 -52.57828922 34.23675162 -49.08032227 34.24023438 C-44.60121142 34.24571552 -40.12240511 34.2697338 -35.6433897 34.29820633 C-32.19897072 34.3168452 -28.75462484 34.322039 -25.31015968 34.32357025 C-23.65916087 34.32659522 -22.00816329 34.33461851 -20.35721397 34.34775543 C-18.04479313 34.36484008 -15.73311292 34.36292995 -13.4206543 34.35644531 C-12.10542282 34.36009094 -10.79019135 34.36373657 -9.43510437 34.36749268 C-5.76776858 33.97515553 -3.87372397 33.28015824 -1 31 C0.11911712 27.64264863 0.11365586 25.11794614 0.09765625 21.58203125 C0.09443359 20.32841797 0.09121094 19.07480469 0.08789062 17.78320312 C0.07951172 16.47287109 0.07113281 15.16253906 0.0625 13.8125 C0.05748317 12.47721519 0.05292059 11.14192859 0.04882812 9.80664062 C0.03702695 6.53771527 0.02056297 3.26888009 0 0 Z " fill="#575757" transform="translate(209,177)"/>
<path d="M0 0 C2.61704241 1.98046452 3.76666688 3.35000059 4.875 6.4375 C5.06018697 10.23383288 3.84359527 12.64087428 1.875 15.8125 C-1.22850958 17.77805607 -4.49994041 17.63509146 -8 17 C-10.72250034 15.11519207 -11.70354088 13.73126584 -12.9375 10.6875 C-13.02707708 6.83568562 -11.83373033 4.35130026 -10 1 C-6.74423911 -1.6944228 -3.92045576 -1.14346626 0 0 Z " fill="#F88A94" transform="translate(240,51)"/>
<path d="M0 0 C0.66 0 1.32 0 2 0 C1.84015625 0.94488281 1.6803125 1.88976562 1.515625 2.86328125 C-0.22285319 15.13434807 0.01207903 28.24162356 4 40 C4.29003906 40.97839844 4.58007812 41.95679688 4.87890625 42.96484375 C8.8096965 55.74402378 14.61248437 65.31677136 23.48828125 75.1640625 C26 78 26 78 27 80 C26.01 80.33 25.02 80.66 24 81 C22.20079556 78.77656843 20.4106409 76.54678318 18.625 74.3125 C18.11710937 73.68666016 17.60921875 73.06082031 17.0859375 72.41601562 C14.42618783 69.07383019 12.31140638 66.1317201 11 62 C10.34 62 9.68 62 9 62 C7.5393715 59.35261084 7 58.10551666 7 55 C6.34 55 5.68 55 5 55 C4.34996375 52.79290017 3.70515255 50.58426108 3.0625 48.375 C2.70285156 47.14523438 2.34320313 45.91546875 1.97265625 44.6484375 C1.11514028 41.43189164 0.48096015 38.29078001 0 35 C-0.99 34.67 -1.98 34.34 -3 34 C-3 27.07 -3 20.14 -3 13 C-3.99 16.3 -4.98 19.6 -6 23 C-6.66 23 -7.32 23 -8 23 C-6.05797655 14.97928527 -3.33160505 7.54549287 0 0 Z " fill="#987BC2" transform="translate(80,150)"/>
<path d="M0 0 C3.61655233 3.19925783 5.89059387 6.86946382 8.33984375 10.9765625 C12.30736057 15.81226535 18.86982578 15.63422689 24.6875 16.375 C31.92625629 17.38972431 38.48904699 18.5086194 45 22 C45.8353125 22.4434375 46.670625 22.886875 47.53125 23.34375 C57.3760366 28.91850868 63.88835681 35.50785416 70 45 C69.505 45.99 69.505 45.99 69 47 C68.54109375 46.39671875 68.0821875 45.7934375 67.609375 45.171875 C66.99578125 44.37265625 66.3821875 43.5734375 65.75 42.75 C65.14671875 41.96109375 64.5434375 41.1721875 63.921875 40.359375 C61.04490088 36.82747994 58.56278041 33.9087617 54.25 32.25 C53.1775 31.8375 52.105 31.425 51 31 C51 30.34 51 29.68 51 29 C49.35 28.67 47.7 28.34 46 28 C46 27.34 46 26.68 46 26 C44.02 25.34 42.04 24.68 40 24 C40 23.34 40 22.68 40 22 C38.700625 21.7834375 38.700625 21.7834375 37.375 21.5625 C35.36510544 21.22751757 33.35810378 20.87276022 31.359375 20.4765625 C28.69875281 20.0991254 26.288395 19.9274561 23.6171875 19.89453125 C22.84246094 19.87970703 22.06773437 19.86488281 21.26953125 19.84960938 C19.66554873 19.82475157 18.06114305 19.81973136 16.45703125 19.83398438 C14.16697591 19.77090272 12.20241014 19.63513721 10 19 C7.6484375 16.30859375 7.6484375 16.30859375 6 13 C5.43796875 12.03578125 4.8759375 11.0715625 4.296875 10.078125 C3.78640625 9.14484375 3.2759375 8.2115625 2.75 7.25 C1.96882812 5.83460937 1.96882812 5.83460937 1.171875 4.390625 C0 2 0 2 0 0 Z " fill="#F9B8BD" transform="translate(209,64)"/>
<path d="M0 0 C0.495 1.485 0.495 1.485 1 3 C-1.24797143 6.41358624 -3.15096785 8.62064599 -7 10 C-9.93478677 10.16902104 -12.7709612 10.232654 -15.703125 10.1953125 C-16.54091492 10.1924826 -17.37870483 10.18965271 -18.24188232 10.18673706 C-20.91140163 10.17556349 -23.5805825 10.15046421 -26.25 10.125 C-28.06249515 10.11496654 -29.87499556 10.10584133 -31.6875 10.09765625 C-36.12512993 10.0756334 -40.56250763 10.04112304 -45 10 C-45.495 7.03 -45.495 7.03 -46 4 C-47.32 4 -48.64 4 -50 4 C-50.66 5.98 -51.32 7.96 -52 10 C-57.32017615 10.09906509 -62.63981247 10.17156072 -67.96069336 10.21972656 C-69.7697078 10.23981053 -71.57865757 10.26708341 -73.38745117 10.30175781 C-75.99153621 10.35041892 -78.59476115 10.37300051 -81.19921875 10.390625 C-82.40731453 10.42159271 -82.40731453 10.42159271 -83.63981628 10.45318604 C-87.73304526 10.45481234 -89.53657642 10.30758892 -93.05004883 7.97558594 C-93.69353271 7.32364258 -94.3370166 6.67169922 -95 6 C-94.67 5.34 -94.34 4.68 -94 4 C-93.02123901 4.7266687 -93.02123901 4.7266687 -92.02270508 5.46801758 C-88.20638491 7.40222394 -84.82102128 7.47661419 -80.63671875 7.51171875 C-79.44874443 7.53864555 -79.44874443 7.53864555 -78.23677063 7.56611633 C-75.72040038 7.62006838 -73.20421815 7.65406563 -70.6875 7.6875 C-68.97588538 7.72068651 -67.26429552 7.75517741 -65.55273438 7.79101562 C-61.36862558 7.87578582 -57.18457107 7.94266843 -53 8 C-53.04125 7.21625 -53.0825 6.4325 -53.125 5.625 C-53 3 -53 3 -51 1 C-48.5 0.75 -48.5 0.75 -46 1 C-44 3 -44 3 -43.875 5.625 C-43.91625 6.40875 -43.9575 7.1925 -44 8 C-39.10668475 7.90621305 -34.2138496 7.80006375 -29.32104492 7.68261719 C-27.65770752 7.64441304 -25.99428992 7.60954537 -24.33081055 7.578125 C-21.9350932 7.53228766 -19.53992391 7.47432533 -17.14453125 7.4140625 C-16.03486748 7.39673569 -16.03486748 7.39673569 -14.90278625 7.37905884 C-10.86359764 7.26446245 -7.58941827 6.91309797 -4 5 C-1.70422757 2.48593689 -1.70422757 2.48593689 0 0 Z " fill="#404040" transform="translate(214,162)"/>
<path d="M0 0 C4.0743356 0.84881992 5.54405875 2.30225596 8 5.625 C8.625 8.625 8.625 8.625 8 11.625 C5.54405875 14.94774404 4.0743356 16.40118008 0 17.25 C-4.0743356 16.40118008 -5.54405875 14.94774404 -8 11.625 C-8.625 8.625 -8.625 8.625 -8 5.625 C-5.54405875 2.30225596 -4.0743356 0.84881992 0 0 Z " fill="#9162CF" transform="translate(142,281.375)"/>
<path d="M0 0 C0 0.66 0 1.32 0 2 C4.02992782 1.44687265 8.02022924 0.8441938 12 0 C-0.88873515 10.45353635 -21.12605619 11.28467277 -37 10 C-41.42858522 9.36977441 -45.72420951 8.31082628 -50 7 C-50 6.67 -50 6.34 -50 6 C-47.36 5.67 -44.72 5.34 -42 5 C-41.67 5.66 -41.34 6.32 -41 7 C-34.43983174 8.49094733 -27.69023716 8.09054456 -21 8 C-20.71576172 6.81857422 -20.71576172 6.81857422 -20.42578125 5.61328125 C-19 3 -19 3 -15.91796875 1.85546875 C-14.68691406 1.63503906 -13.45585937 1.41460937 -12.1875 1.1875 C-10.96417969 0.95417969 -9.74085938 0.72085938 -8.48046875 0.48046875 C-5.58299681 0.08048104 -2.91512683 -0.10549983 0 0 Z " fill="#36343B" transform="translate(190,242)"/>
<path d="M0 0 C-3.25781671 2.17187781 -4.01181767 2.22150667 -7.74609375 2.08984375 C-9.12571289 2.05987305 -9.12571289 2.05987305 -10.53320312 2.02929688 C-12.46562623 1.96821827 -14.39792684 1.90312956 -16.33007812 1.83398438 C-17.25111328 1.81529297 -18.17214844 1.79660156 -19.12109375 1.77734375 C-20.38070923 1.73468384 -20.38070923 1.73468384 -21.66577148 1.69116211 C-24.52360155 2.06927685 -25.7987525 3.20268363 -28 5 C-28.66 5 -29.32 5 -30 5 C-30 5.66 -30 6.32 -30 7 C-32.37755434 7.47551087 -34.75512869 7.95091805 -37.1328125 8.42578125 C-38.98217636 8.79615794 -40.83116531 9.16841396 -42.6796875 9.54296875 C-47.1098201 10.43842108 -51.53451989 11.29492419 -56 12 C-56.33 11.01 -56.66 10.02 -57 9 C-54.76596542 6.76596542 -53.04268234 6.35249619 -50.046875 5.56640625 C-47.88752932 4.96887739 -45.80007872 4.24539568 -43.6875 3.5 C-29.82234891 -1.09080254 -14.44199152 -2.06768601 0 0 Z " fill="#C8B29C" transform="translate(188,76)"/>
<path d="M0 0 C1.18819336 -0.00386719 1.18819336 -0.00386719 2.40039062 -0.0078125 C3.22861328 -0.00007813 4.05683594 0.00765625 4.91015625 0.015625 C5.73451172 0.00789063 6.55886719 0.00015625 7.40820312 -0.0078125 C8.20162109 -0.00523438 8.99503906 -0.00265625 9.8125 0 C10.90099243 0.00338379 10.90099243 0.00338379 12.01147461 0.00683594 C13.97265625 0.265625 13.97265625 0.265625 16.97265625 2.265625 C16.97265625 4.245625 16.97265625 6.225625 16.97265625 8.265625 C9.38265625 8.265625 1.79265625 8.265625 -6.02734375 8.265625 C-6.02734375 0.01876633 -6.02734375 0.01876633 0 0 Z " fill="#020202" transform="translate(160.02734375,127.734375)"/>
<path d="M0 0 C6.22154005 0.25977203 11.1063404 1.21132318 16.69921875 3.953125 C19.94839561 5.43152805 23.30135386 6.34819671 26.73828125 7.2890625 C31.68536514 8.84410441 34.42625207 11.23816007 38 15 C38.66 15.66 39.32 16.32 40 17 C39.625 20.625 39.625 20.625 39 24 C37.2925002 22.71937515 35.62626404 21.38232443 34 20 C34 19.34 34 18.68 34 18 C33.236875 17.71125 32.47375 17.4225 31.6875 17.125 C29 16 29 16 26 14 C26 13.34 26 12.68 26 12 C25.13117188 11.73058594 24.26234375 11.46117188 23.3671875 11.18359375 C20.10387716 10.03651367 17.18916205 8.65960303 14.125 7.0625 C9.48746545 4.69747303 4.91610598 2.70172899 0 1 C0 0.67 0 0.34 0 0 Z " fill="#F4B4B7" transform="translate(185,77)"/>
<path d="M0 0 C11.78202704 9.40913324 11.78202704 9.40913324 14 15 C13.54109375 14.59007813 13.0821875 14.18015625 12.609375 13.7578125 C11.99578125 13.21898438 11.3821875 12.68015625 10.75 12.125 C10.14671875 11.59132813 9.5434375 11.05765625 8.921875 10.5078125 C7.05490218 8.93945489 7.05490218 8.93945489 4.890625 7.9453125 C3 7 3 7 1 4.75 C-6.87800329 -3.39301257 -19.87351517 -6.86827013 -30.8515625 -7.2109375 C-39.27765993 -7.33202923 -47.63932598 -7.11475654 -56 -6 C-56 -5.34 -56 -4.68 -56 -4 C-57.98 -3.67 -59.96 -3.34 -62 -3 C-62 -3.66 -62 -4.32 -62 -5 C-60.43979133 -5.65134925 -58.87671421 -6.29582964 -57.3125 -6.9375 C-56.44238281 -7.29714844 -55.57226562 -7.65679687 -54.67578125 -8.02734375 C-37.36549657 -14.31969541 -14.83525518 -10.31926 0 0 Z " fill="#F9D6A7" transform="translate(195,49)"/>
<path d="M0 0 C0 3.61806453 -0.86311787 4.20561568 -3 7 C-3.38478516 8.18916016 -3.38478516 8.18916016 -3.77734375 9.40234375 C-6.50596053 15.1995647 -13.92469828 18.22615868 -19.6875 20.375 C-23.45727727 21.08627873 -27.18470053 21.59838953 -31 22 C-30.67 20.68 -30.34 19.36 -30 18 C-28.865625 17.71125 -27.73125 17.4225 -26.5625 17.125 C-25.386875 16.75375 -24.21125 16.3825 -23 16 C-22.67 15.34 -22.34 14.68 -22 14 C-20.56801418 13.23981 -19.10284732 12.54166298 -17.625 11.875 C-11.36606698 8.85842911 -4.94543772 4.94543772 0 0 Z " fill="#2E2D2D" transform="translate(220,223)"/>
<path d="M0 0 C0.66 0.33 1.32 0.66 2 1 C-0.23725085 3.44063729 -2.75470865 5.32186615 -5.4296875 7.25952148 C-19.18732838 17.3261363 -27.87316761 30.07962333 -31 47 C-31.33027014 50.67959788 -31.55663905 54.33944536 -31.69140625 58.03125 C-32 61 -32 61 -34 64 C-34.66 63.67 -35.32 63.34 -36 63 C-35.505 62.505 -35.505 62.505 -35 62 C-34.83860687 59.71060852 -34.72188847 57.4180272 -34.625 55.125 C-34.25358469 48.42282258 -33.17539055 42.37918579 -31 36 C-30.73445313 35.17113281 -30.46890625 34.34226563 -30.1953125 33.48828125 C-25.11997983 19.18302943 -13.55061735 6.7296837 0 0 Z " fill="#FADCB0" transform="translate(130,45)"/>
<path d="M0 0 C-3.41600748 2.27733832 -5.96091086 2.62779248 -9.94140625 3.2421875 C-12.18850652 3.82891211 -12.18850652 3.82891211 -13.27734375 6.0703125 C-13.63505859 7.02550781 -13.63505859 7.02550781 -14 8 C-14.66 8 -15.32 8 -16 8 C-16 8.66 -16 9.32 -16 10 C-16.804375 10.33 -17.60875 10.66 -18.4375 11 C-22.58792826 13.03063913 -25.71396674 16.20961147 -29.046875 19.35546875 C-31 21 -31 21 -33 21 C-33.268125 21.598125 -33.53625 22.19625 -33.8125 22.8125 C-35.00987475 25.01819033 -36.04478984 26.43583187 -38 28 C-38.99 28 -39.98 28 -41 28 C-40.40312566 24.65750371 -39.26396123 22.53563658 -37 20 C-36.34 20 -35.68 20 -35 20 C-35 19.34 -35 18.68 -35 18 C-32.95760531 16.15096812 -30.9184973 14.44061171 -28.75 12.75 C-28.11827881 12.25636963 -27.48655762 11.76273926 -26.83569336 11.25415039 C-7.2818038 -3.6409019 -7.2818038 -3.6409019 0 0 Z " fill="#D5AA72" transform="translate(139,80)"/>
<path d="M0 0 C8.7851621 0.33969293 16.66936222 1.06706472 25 4 C26.87249369 4.57078773 28.74748943 5.13343744 30.625 5.6875 C31.46289062 5.93886719 32.30078125 6.19023438 33.1640625 6.44921875 C33.76992187 6.63097656 34.37578125 6.81273438 35 7 C35.495 9.97 35.495 9.97 36 13 C33.07406105 13.85637238 30.91825712 14.38673104 28.04296875 13.17578125 C26.32488268 12.17852152 24.65798613 11.09427085 23 10 C23 9.34 23 8.68 23 8 C15.05178041 5.7541103 7.05895649 3.80653874 -1 2 C-0.67 1.34 -0.34 0.68 0 0 Z " fill="#D59A5D" transform="translate(182,71)"/>
<path d="M0 0 C0.78246094 -0.01417969 1.56492188 -0.02835937 2.37109375 -0.04296875 C4.5625 0.1875 4.5625 0.1875 7.5625 2.1875 C10.20671272 2.91147696 12.83037784 3.5756618 15.5 4.1875 C24.11891311 6.17349618 24.11891311 6.17349618 27.5625 8.1875 C27.5625 8.8475 27.5625 9.5075 27.5625 10.1875 C28.160625 10.290625 28.75875 10.39375 29.375 10.5 C31.84493264 11.27626455 32.88501235 12.25838921 34.5625 14.1875 C30.3120402 13.26012695 26.57489143 12.26774242 22.6875 10.3125 C8.268623 3.77856255 -6.91287234 3.61915261 -22.4375 4.1875 C-22.4375 3.8575 -22.4375 3.5275 -22.4375 3.1875 C-21.30570313 3.05472656 -20.17390625 2.92195313 -19.0078125 2.78515625 C-17.52601821 2.6069658 -16.04424864 2.42856971 -14.5625 2.25 C-13.44294922 2.11948242 -13.44294922 2.11948242 -12.30078125 1.98632812 C-7.99905687 1.46314543 -4.30011539 0.03530472 0 0 Z " fill="#D9AB78" transform="translate(177.4375,70.8125)"/>
<path d="M0 0 C0 0.66 0 1.32 0 2 C-1.65532623 3.01866229 -3.32260138 4.01810813 -5 5 C-5.33 5.66 -5.66 6.32 -6 7 C-6.66 7 -7.32 7 -8 7 C-8.93619813 10.15506142 -9.1057123 12.96586502 -9.0625 16.25 C-9.04896484 17.58804687 -9.04896484 17.58804687 -9.03515625 18.953125 C-9.02355469 19.62859375 -9.01195312 20.3040625 -9 21 C-8.34 21 -7.68 21 -7 21 C-6.67 23.31 -6.34 25.62 -6 28 C-4.68 28.33 -3.36 28.66 -2 29 C-2 29.66 -2 30.32 -2 31 C4.93 31.495 4.93 31.495 12 32 C12 31.01 12 30.02 12 29 C12.66 29 13.32 29 14 29 C14.33 29.99 14.66 30.98 15 32 C9.96866832 34.98286092 4.6710111 34.70433813 -1 34 C-5.52300011 32.32454845 -8.25129489 30.11098178 -10.9375 26.125 C-13.12070194 19.70381783 -13.60562385 14.29692431 -11 8 C-8.40849368 3.86636492 -5.18467867 0 0 0 Z " fill="#7899EB" transform="translate(213,4)"/>
<path d="M0 0 C0.99 0.33 1.98 0.66 3 1 C2.43410156 1.38671875 1.86820313 1.7734375 1.28515625 2.171875 C0.55167969 2.69265625 -0.18179688 3.2134375 -0.9375 3.75 C-1.66839844 4.26046875 -2.39929688 4.7709375 -3.15234375 5.296875 C-5.15565547 6.83058963 -5.15565547 6.83058963 -5.5078125 9.03515625 C-6 11 -6 11 -7.71484375 12.38671875 C-8.44832031 12.81597656 -9.18179688 13.24523437 -9.9375 13.6875 C-17.4633774 18.41667974 -23.83655888 24.63111084 -30 31 C-30 27.7 -30 24.4 -30 21 C-29.67 21.66 -29.34 22.32 -29 23 C-25.71265671 21.21544221 -23.17586255 19.28597203 -20.58203125 16.6015625 C-18.43655612 14.42960002 -16.23192331 12.33312842 -14 10.25 C-13.175 9.47140625 -12.35 8.6928125 -11.5 7.890625 C-8.88838821 5.91559358 -7.21813776 5.34480047 -4 5 C-4 4.34 -4 3.68 -4 3 C-2.1875 1.3125 -2.1875 1.3125 0 0 Z " fill="#C8B395" transform="translate(127,85)"/>
<path d="M0 0 C-0.6875 1.875 -0.6875 1.875 -2 4 C-2.763125 4.28101562 -3.52625 4.56203125 -4.3125 4.8515625 C-7.53943919 6.23051617 -9.02358894 7.85540806 -11.3125 10.5 C-12.08464844 11.39203125 -12.85679688 12.2840625 -13.65234375 13.203125 C-14.42707031 14.12609375 -15.20179687 15.0490625 -16 16 C-16.74378906 16.88171875 -17.48757812 17.7634375 -18.25390625 18.671875 C-21.77611584 22.95301373 -24.65804791 26.9463139 -27 32 C-27.98165594 33.01801357 -28.97591432 34.0246803 -30 35 C-30 35.66 -30 36.32 -30 37 C-31.98 37.495 -31.98 37.495 -34 38 C-31.58363762 24.40796163 -17.34028262 10.53116314 -6.375 2.6875 C-2.3535109 0 -2.3535109 0 0 0 Z " fill="#4B443C" transform="translate(121,96)"/>
<path d="M0 0 C0 0.99 0 1.98 0 3 C-0.66 3.66 -1.32 4.32 -2 5 C-0.02 5.66 1.96 6.32 4 7 C4 7.33 4 7.66 4 8 C-8.87 7.505 -8.87 7.505 -22 7 C-21.34 6.67 -20.68 6.34 -20 6 C-20 5.34 -20 4.68 -20 4 C-14.39628303 -1.60371697 -7.46143857 -0.36796135 0 0 Z " fill="#B3A291" transform="translate(178,77)"/>
<path d="M0 0 C0.66 0.99 1.32 1.98 2 3 C1.67 3.99 1.34 4.98 1 6 C5.14670039 3.62370911 5.14670039 3.62370911 8 0 C8.99 0.33 9.98 0.66 11 1 C8.375 4.875 8.375 4.875 5 6 C4.67 6.66 4.34 7.32 4 8 C1.67843403 8.40729228 -0.6568787 8.74438677 -3 9 C-3 10.32 -3 11.64 -3 13 C-4.93356782 13.69848264 -6.87202298 14.38344814 -8.8125 15.0625 C-9.89144531 15.44535156 -10.97039062 15.82820312 -12.08203125 16.22265625 C-15 17 -15 17 -18 16 C-17.01 15.67 -16.02 15.34 -15 15 C-15 14.01 -15 13.02 -15 12 C-13.36935236 10.94228261 -11.69719127 9.94726954 -10 9 C-9.505 8.505 -9.01 8.01 -8.5 7.5 C-7 6 -7 6 -4.4375 4.5 C-1.75281489 3.08195341 -1.75281489 3.08195341 0 0 Z " fill="#A0B8F8" transform="translate(210,239)"/>
<path d="M0 0 C5.17824686 0.15691657 9.44314027 3.45145069 13 7 C13.921875 9.01171875 13.921875 9.01171875 14 11 C12.5625 12.75 12.5625 12.75 11 14 C10.32195312 13.54109375 9.64390625 13.0821875 8.9453125 12.609375 C2.83771034 8.5827564 -3.09166217 5.4126733 -10 3 C-7.77316603 2.43023438 -5.57406672 1.9207566 -3.3125 1.5 C-1.04844958 1.22901669 -1.04844958 1.22901669 0 0 Z " fill="#BF9897" transform="translate(204,87)"/>
<path d="M0 0 C3.88013057 1.73584789 7.13812233 3.78751027 10.5625 6.3125 C16.30996295 10.43663372 22.51681692 13.22584799 29 16 C28.67 16.66 28.34 17.32 28 18 C27.34 18 26.68 18 26 18 C26.33 19.32 26.66 20.64 27 22 C25.35 21.34 23.7 20.68 22 20 C22 19.34 22 18.68 22 18 C21.2575 17.9175 20.515 17.835 19.75 17.75 C16.39748585 16.83567796 15.40359308 15.47364315 13 13 C11.32942476 11.62500837 9.6412302 10.27118925 7.9375 8.9375 C1.9223365 4.22486814 1.9223365 4.22486814 0 2 C0 1.34 0 0.68 0 0 Z " fill="#5F31C6" transform="translate(107,236)"/>
<path d="M0 0 C0.33 0 0.66 0 1 0 C1 1.65 1 3.3 1 5 C0.34 5 -0.32 5 -1 5 C-1.2165625 5.71929687 -1.433125 6.43859375 -1.65625 7.1796875 C-3.34985198 10.73428235 -5.52412042 12.56417731 -8.5 15.125 C-12.64326295 18.71207259 -12.64326295 18.71207259 -16 23 C-16.99 22.67 -17.98 22.34 -19 22 C-18.67 19.36 -18.34 16.72 -18 14 C-17.01 14.33 -16.02 14.66 -15 15 C-14.4225 14.01 -13.845 13.02 -13.25 12 C-12.5075 11.01 -11.765 10.02 -11 9 C-9.68 9 -8.36 9 -7 9 C-6.67 8.34 -6.34 7.68 -6 7 C-5.34 7.33 -4.68 7.66 -4 8 C-3.67 6.35 -3.34 4.7 -3 3 C-2.34 3 -1.68 3 -1 3 C-0.67 2.01 -0.34 1.02 0 0 Z " fill="#CC567D" transform="translate(278,164)"/>
<path d="M0 0 C3.92450081 0.58140753 5.95496049 2.557038 9 5 C12.13068497 7.03415064 15.28629154 9.02266009 18.453125 11 C21 13 21 13 21.859375 15.25 C21.90578125 15.8275 21.9521875 16.405 22 17 C24.31 17.66 26.62 18.32 29 19 C29 19.66 29 20.32 29 21 C16.88386936 17.62337343 7.54712342 11.06283122 0 1 C0 0.67 0 0.34 0 0 Z " fill="#AD9ADF" transform="translate(105,230)"/>
<path d="M0 0 C8.80599231 13.20898847 7.33183155 34.57979564 4.6328125 49.6171875 C4.01132173 51.9573688 3.16966865 53.88673311 2 56 C1.97258088 54.4584364 1.95341752 52.91672526 1.9375 51.375 C1.92589844 50.51648438 1.91429687 49.65796875 1.90234375 48.7734375 C2 46 2 46 2.4921875 43.05078125 C4.82244551 29.05130814 2.05658069 13.91434324 0 0 Z " fill="#45373B" transform="translate(241,137)"/>
<path d="M0 0 C0.99 0.33 1.98 0.66 3 1 C-0.79434696 5.41062624 -5.43194982 5.47670912 -11 6 C-14.52136654 6.16639189 -18.03748283 6.22672334 -21.5625 6.25 C-22.43632324 6.25926514 -23.31014648 6.26853027 -24.21044922 6.27807617 C-30.34363069 6.24877204 -36.0342527 5.40483469 -42 4 C-42 3.67 -42 3.34 -42 3 C-41.36199463 3.01047363 -40.72398926 3.02094727 -40.06665039 3.03173828 C-26.95462836 3.21775781 -13.94893046 3.3311478 -1 1 C-0.67 0.67 -0.34 0.34 0 0 Z " fill="#A28BE8" transform="translate(192,253)"/>
<path d="M0 0 C0.495 1.485 0.495 1.485 1 3 C-1.24797143 6.41358624 -3.15096785 8.62064599 -7 10 C-9.93478677 10.16902104 -12.7709612 10.232654 -15.703125 10.1953125 C-16.54091492 10.1924826 -17.37870483 10.18965271 -18.24188232 10.18673706 C-20.91140163 10.17556349 -23.5805825 10.15046421 -26.25 10.125 C-28.06249515 10.11496654 -29.87499556 10.10584133 -31.6875 10.09765625 C-36.12512993 10.0756334 -40.56250763 10.04112304 -45 10 C-44.67 9.34 -44.34 8.68 -44 8 C-42.96593018 7.98018066 -41.93186035 7.96036133 -40.86645508 7.93994141 C-37.01774381 7.86367773 -33.1694004 7.77499286 -29.32104492 7.68261719 C-27.65770752 7.64441304 -25.99428992 7.60954537 -24.33081055 7.578125 C-21.9350932 7.53228766 -19.53992391 7.47432533 -17.14453125 7.4140625 C-16.4047554 7.40251129 -15.66497955 7.39096008 -14.90278625 7.37905884 C-10.86359764 7.26446245 -7.58941827 6.91309797 -4 5 C-1.70422757 2.48593689 -1.70422757 2.48593689 0 0 Z " fill="#3E3E3E" transform="translate(214,162)"/>
<path d="M0 0 C3.16064051 0.10195615 6.0617186 0.8483659 9 2 C11.46206895 4.90971785 12 6.19696646 12 10 C8.37 9.67 4.74 9.34 1 9 C0.01 6.69 -0.98 4.38 -2 2 C-1.34 1.34 -0.68 0.68 0 0 Z " fill="#7E49C3" transform="translate(122,256)"/>
<path d="M0 0 C13.86 0.495 13.86 0.495 28 1 C28.33 1.99 28.66 2.98 29 4 C25.09652473 5.95173763 20.27873278 5.1138236 16 5 C14.84113281 4.97164063 13.68226563 4.94328125 12.48828125 4.9140625 C11.33714844 4.85992187 10.18601563 4.80578125 9 4.75 C7.9275 4.70359375 6.855 4.6571875 5.75 4.609375 C3 4 3 4 0 0 Z " fill="#BBA9EB" transform="translate(147,252)"/>
<path d="M0 0 C2.84184469 2.47750563 3.79819194 4.36766808 4.9375 7.9375 C5.01528829 11.74912637 3.97686274 13.77844591 2 17 C-0.35858628 19.35858628 -1.07631948 19.36946499 -4.3125 19.5 C-8.16570046 19.39417705 -8.90882876 19.07111357 -12.125 16.5625 C-14.4821636 13.11678516 -14.43803409 10.07802033 -13.69921875 6.05859375 C-13 4 -13 4 -10.9375 1.4375 C-6.80051169 -0.58698364 -4.59113761 -0.6558768 0 0 Z M-10.5 4.0625 C-12.37276489 7.72999792 -12.59172793 9.93187045 -12 14 C-10.58333333 16.58333333 -10.58333333 16.58333333 -8 18 C-3.26360181 18.62344572 -3.26360181 18.62344572 0.875 16.625 C3.17347511 13.30498039 3.31595938 11.02848204 3 7 C2.18792354 4.03506935 2.18792354 4.03506935 0 2 C-4.75881342 1.24463279 -6.76295327 0.97943644 -10.5 4.0625 Z " fill="#F8DEB7" transform="translate(234,278)"/>
<path d="M0 0 C0.66 0 1.32 0 2 0 C2.3403125 0.89460937 2.680625 1.78921875 3.03125 2.7109375 C6.33449567 10.95148122 10.01343449 17.33549329 16 24 C16.68191406 24.78890625 17.36382812 25.5778125 18.06640625 26.390625 C19.69635214 28.27411803 21.34007204 30.14295559 23 32 C22.01 32.66 21.02 33.32 20 34 C18.20079556 31.77656843 16.4106409 29.54678318 14.625 27.3125 C13.86316406 26.37374023 13.86316406 26.37374023 13.0859375 25.41601562 C10.42618783 22.07383019 8.31140638 19.1317201 7 15 C6.34 15 5.68 15 5 15 C3.5393715 12.35261084 3 11.10551666 3 8 C2.34 8 1.68 8 1 8 C0.67 5.36 0.34 2.72 0 0 Z " fill="#A08BC9" transform="translate(84,197)"/>
<path d="M0 0 C4.0743356 0.84881992 5.54405875 2.30225596 8 5.625 C8.625 8.625 8.625 8.625 8 11.625 C5.54405875 14.94774404 4.0743356 16.40118008 0 17.25 C-4.0743356 16.40118008 -5.54405875 14.94774404 -8 11.625 C-8.625 8.625 -8.625 8.625 -8 5.625 C-5.54405875 2.30225596 -4.0743356 0.84881992 0 0 Z M-4.875 4.3125 C-6.21671677 7.07047336 -6.542959 8.5999427 -6 11.625 C-4.57951684 13.69256129 -4.57951684 13.69256129 -2 14.625 C0.77126779 14.56682453 3.25526545 14.12820133 6 13.625 C6.08096803 12.16757537 6.13917774 10.70887193 6.1875 9.25 C6.22230469 8.43789063 6.25710937 7.62578125 6.29296875 6.7890625 C6.19628906 6.07492187 6.09960938 5.36078125 6 4.625 C2.21191303 2.09960869 -1.22824185 1.03041766 -4.875 4.3125 Z " fill="#BEA6E5" transform="translate(142,281.375)"/>
<path d="M0 0 C0.99 0.495 0.99 0.495 2 1 C2.31337684 2.59299895 2.55182035 4.20111069 2.75 5.8125 C3.33615872 9.52725963 3.33615872 9.52725963 5.4609375 12.48046875 C6.93649834 13.38450955 8.46578047 14.19953764 10 15 C10 15.66 10 16.32 10 17 C11.91697937 16.85833643 13.83357723 16.71150416 15.75 16.5625 C16.81734375 16.48128906 17.8846875 16.40007812 18.984375 16.31640625 C21.43679962 16.05909227 23.63921291 15.68187782 26 15 C22.63534895 18.59669595 20.70241703 19.8715157 15.6875 20.25 C11.04533663 19.93527706 7.87806438 18.89831305 4.55078125 15.53515625 C1.21867082 11.63019016 -0.13475438 9.43280693 -0.0625 4.375 C-0.05347656 3.55773437 -0.04445312 2.74046875 -0.03515625 1.8984375 C-0.02355469 1.27195312 -0.01195312 0.64546875 0 0 Z " fill="#F5AFB8" transform="translate(49,107)"/>
<path d="M0 0 C0.66 0 1.32 0 2 0 C1.51961988 13.81092859 -1.18224942 27.4051889 -7 40 C-7.33 40 -7.66 40 -8 40 C-7.67 35.71 -7.34 31.42 -7 27 C-6.01 27 -5.02 27 -4 27 C-3.855625 26.071875 -3.71125 25.14375 -3.5625 24.1875 C-3 21 -3 21 -2 18 C-1.79040462 16.59414375 -1.61520745 15.18295007 -1.46484375 13.76953125 C-1.33432617 12.56586914 -1.33432617 12.56586914 -1.20117188 11.33789062 C-1.11416016 10.50451172 -1.02714844 9.67113281 -0.9375 8.8125 C-0.84662109 7.96751953 -0.75574219 7.12253906 -0.66210938 6.25195312 C-0.4384388 4.16828515 -0.21882849 2.08418205 0 0 Z " fill="#88A7EF" transform="translate(278,172)"/>
<path d="M0 0 C8.80050608 7.54329093 12.88545328 22.74672178 13.8125 33.9375 C13.89472161 35.62415412 13.96541652 37.31169716 14 39 C13.34 38.67 12.68 38.34 12 38 C11.5859375 35.27734375 11.5859375 35.27734375 11.375 31.9375 C11.30023438 30.83277344 11.22546875 29.72804687 11.1484375 28.58984375 C11.09945313 27.73519531 11.05046875 26.88054687 11 26 C10.34 26 9.68 26 9 26 C8.32635339 23.91891315 7.66133202 21.8350329 7 19.75 C6.62875 18.58984375 6.2575 17.4296875 5.875 16.234375 C5 13 5 13 5 9 C4.34 9 3.68 9 3 9 C3 8.01 3 7.02 3 6 C2.34 6 1.68 6 1 6 C0.67 4.02 0.34 2.04 0 0 Z " fill="#EB9EB5" transform="translate(246,118)"/>
<path d="M0 0 C-8.24689041 6.9659385 -15.63579194 12.56424604 -26 16 C-26 15.01 -26 14.02 -26 13 C-22.535 12.505 -22.535 12.505 -19 12 C-18.67 11.01 -18.34 10.02 -18 9 C-16.66666667 8.33333333 -15.33333333 7.66666667 -14 7 C-13.3503125 6.071875 -13.3503125 6.071875 -12.6875 5.125 C-9.43843841 1.03358911 -5.23696054 -1.78401953 0 0 Z " fill="#8CB2FC" transform="translate(233,235)"/>
<path d="M0 0 C3.18770385 2.88376 4.98991506 5.40437882 5.3203125 9.765625 C5.29710938 10.64734375 5.27390625 11.5290625 5.25 12.4375 C5.23195313 13.32953125 5.21390625 14.2215625 5.1953125 15.140625 C5.17210938 15.81609375 5.14890625 16.4915625 5.125 17.1875 C4.795 17.1875 4.465 17.1875 4.125 17.1875 C4.09921875 16.60742188 4.0734375 16.02734375 4.046875 15.4296875 C3.6525883 9.99928425 2.9043338 6.36465841 -0.875 2.1875 C-5.35250109 -0.4817795 -8.88904113 -1.32748237 -13.94921875 -0.47265625 C-17.2581077 0.6616282 -19.33243332 2.82654522 -21.875 5.1875 C-22.535 5.1875 -23.195 5.1875 -23.875 5.1875 C-22.36735345 0.96608966 -19.66207131 -0.61599864 -15.875 -2.8125 C-10.28818364 -5.23345376 -4.49150077 -3.71322402 0 0 Z " fill="#FCCCD1" transform="translate(74.875,98.8125)"/>
<path d="M0 0 C-12.66944113 8.44629409 -35.69100312 6.65632048 -50 4 C-50 3.67 -50 3.34 -50 3 C-49.16227051 3.00523682 -48.32454102 3.01047363 -47.46142578 3.01586914 C-44.35661064 3.03290014 -41.25181929 3.04544482 -38.14697266 3.05493164 C-36.14093449 3.06244036 -34.13491798 3.0751447 -32.12890625 3.08789062 C-30.87207031 3.09111328 -29.61523438 3.09433594 -28.3203125 3.09765625 C-27.15773926 3.10289307 -25.99516602 3.10812988 -24.79736328 3.11352539 C-22.04497808 3.19356283 -22.04497808 3.19356283 -20 2 C-16.91994088 1.68499395 -13.83900088 1.48916352 -10.75 1.28125 C-6.92540509 0.89009825 -4.01003194 -0.08717461 0 0 Z " fill="#82A3EE" transform="translate(211,265)"/>
<path d="M0 0 C0.66 0.66 1.32 1.32 2 2 C-6.78343949 13.28025478 -6.78343949 13.28025478 -12 18 C-12.66 18 -13.32 18 -14 18 C-13.37889022 13.96278646 -11.46763405 11.20125499 -9 8 C-7.02514795 6.6296945 -5.02613283 5.29327628 -3 4 C-1.16699091 1.89424357 -1.16699091 1.89424357 0 0 Z " fill="#31373B" transform="translate(230,215)"/>
<path d="M0 0 C3.55780196 0.60990891 6.6828589 1.5783681 10 3 C10 3.66 10 4.32 10 5 C10.556875 5.11214844 11.11375 5.22429687 11.6875 5.33984375 C19.98335722 7.48387442 24.14148604 12.74343554 28.7890625 19.6640625 C29.18867188 20.43492188 29.58828125 21.20578125 30 22 C29.67 22.66 29.34 23.32 29 24 C28.54109375 23.39671875 28.0821875 22.7934375 27.609375 22.171875 C26.99578125 21.37265625 26.3821875 20.5734375 25.75 19.75 C25.14671875 18.96109375 24.5434375 18.1721875 23.921875 17.359375 C21.04490088 13.82747994 18.56278041 10.9087617 14.25 9.25 C13.1775 8.8375 12.105 8.425 11 8 C11 7.34 11 6.68 11 6 C9.35 5.67 7.7 5.34 6 5 C6 4.34 6 3.68 6 3 C4.02 2.34 2.04 1.68 0 1 C0 0.67 0 0.34 0 0 Z " fill="#EF8792" transform="translate(249,87)"/>
<path d="M0 0 C-1.18142578 0.23783203 -1.18142578 0.23783203 -2.38671875 0.48046875 C-9.63543559 2.03315248 -16.35866216 4.1141638 -23.22265625 6.9140625 C-25.48902346 7.80020889 -27.62773841 8.4880011 -30 9 C-30 8.01 -30 7.02 -30 6 C-29.195625 5.731875 -28.39125 5.46375 -27.5625 5.1875 C-26.716875 4.795625 -25.87125 4.40375 -25 4 C-24.67 3.01 -24.34 2.02 -24 1 C-23.01 0.67 -22.02 0.34 -21 0 C-20.67 0.99 -20.34 1.98 -20 3 C-18.845 2.525625 -17.69 2.05125 -16.5 1.5625 C-11.00992066 -0.49141266 -5.75734991 -1.68134997 0 0 Z " fill="#ADA08E" transform="translate(152,85)"/>
<path d="M0 0 C6.29141628 0.26268961 11.28193006 1.24350491 16.94921875 4.01171875 C19.55560465 5.26774853 22.23805834 6.1501718 25 7 C24.67 7.99 24.34 8.98 24 10 C19.66510534 9.33498775 16.00365546 7.82704212 12 6.0625 C8.0197824 4.31686577 4.04662171 2.58645965 0 1 C0 0.67 0 0.34 0 0 Z " fill="#E3C8AB" transform="translate(185,77)"/>
<path d="M0 0 C0 3.61806453 -0.86311787 4.20561568 -3 7 C-3.71162443 8.64797236 -4.39031953 10.31165408 -5 12 C-9.04141194 12.63394697 -12.9065307 13.12404452 -17 13 C-14.35188735 10.0566274 -11.24432046 8.0871342 -7.9375 5.9375 C-3.74383817 3.24538142 -3.74383817 3.24538142 0 0 Z " fill="#2D2D2F" transform="translate(220,223)"/>
<path d="M0 0 C0.33 0 0.66 0 1 0 C1.02940458 3.16664666 1.04693315 6.33325747 1.0625 9.5 C1.07087891 10.386875 1.07925781 11.27375 1.08789062 12.1875 C1.1076135 17.5521224 0.94695061 22.71137017 0 28 C-0.66 28.66 -1.32 29.32 -2 30 C-2.99 30 -3.98 30 -5 30 C-4.505 25.545 -4.505 25.545 -4 21 C-3.01 21 -2.02 21 -1 21 C-0.67 14.07 -0.34 7.14 0 0 Z " fill="#E39CB3" transform="translate(260,158)"/>
<path d="M0 0 C-3.95449549 2.51649713 -7.57470935 4.10344686 -12 6 C-6.72 6.33 -1.44 6.66 4 7 C4 7.33 4 7.66 4 8 C0.79168609 8.0292483 -2.41659307 8.04688189 -5.625 8.0625 C-6.98044922 8.07506836 -6.98044922 8.07506836 -8.36328125 8.08789062 C-13.02904289 8.10491895 -17.41013285 7.96829423 -22 7 C-4.28571429 -2.14285714 -4.28571429 -2.14285714 0 0 Z " fill="#4568E8" transform="translate(185,261)"/>
<path d="M0 0 C1.18819336 -0.00386719 1.18819336 -0.00386719 2.40039062 -0.0078125 C3.22861328 -0.00007813 4.05683594 0.00765625 4.91015625 0.015625 C5.73451172 0.00789063 6.55886719 0.00015625 7.40820312 -0.0078125 C8.20162109 -0.00523438 8.99503906 -0.00265625 9.8125 0 C10.90099243 0.00338379 10.90099243 0.00338379 12.01147461 0.00683594 C13.97265625 0.265625 13.97265625 0.265625 16.97265625 2.265625 C17.16015625 5.390625 17.16015625 5.390625 16.97265625 8.265625 C16.64265625 8.265625 16.31265625 8.265625 15.97265625 8.265625 C15.64265625 6.615625 15.31265625 4.965625 14.97265625 3.265625 C9.03265625 3.265625 3.09265625 3.265625 -3.02734375 3.265625 C-3.35734375 4.915625 -3.68734375 6.565625 -4.02734375 8.265625 C-4.68734375 8.265625 -5.34734375 8.265625 -6.02734375 8.265625 C-6.15234375 5.390625 -6.15234375 5.390625 -6.02734375 2.265625 C-3.66833635 -0.0933824 -3.19772035 0.00995621 0 0 Z " fill="#424242" transform="translate(160.02734375,127.734375)"/>
<path d="M0 0 C0.33 0 0.66 0 1 0 C1.83229672 5.32669904 -0.99699607 8.8776946 -4 13 C-4.66 13.66 -5.32 14.32 -6 15 C-6 15.66 -6 16.32 -6 17 C-7.32 17.33 -8.64 17.66 -10 18 C-8.71940591 10.79665822 -4.58823034 5.57646457 0 0 Z " fill="#4A4A4A" transform="translate(97,116)"/>
<path d="M0 0 C0.66 0.33 1.32 0.66 2 1 C-1.60962026 5.64094034 -4.70568832 8.35284416 -10 11 C-10 10.34 -10 9.68 -10 9 C-11.65 9 -13.3 9 -15 9 C-15.33 9.66 -15.66 10.32 -16 11 C-16.66 10.34 -17.32 9.68 -18 9 C-17.49025635 8.76289307 -16.9805127 8.52578613 -16.45532227 8.28149414 C-14.15665983 7.21074407 -11.85956706 6.13666805 -9.5625 5.0625 C-8.76005859 4.68931641 -7.95761719 4.31613281 -7.13085938 3.93164062 C-6.36708984 3.57392578 -5.60332031 3.21621094 -4.81640625 2.84765625 C-4.10943604 2.51773682 -3.40246582 2.18781738 -2.67407227 1.84790039 C-1.0108841 1.11465443 -1.0108841 1.11465443 0 0 Z " fill="#A7A0D1" transform="translate(209,238)"/>
<path d="M0 0 C0.66 0 1.32 0 2 0 C2.25 7.625 2.25 7.625 0 11 C-0.598125 11.12375 -1.19625 11.2475 -1.8125 11.375 C-4.31263264 11.89781263 -4.31263264 11.89781263 -6.5625 14.5625 C-7.7690625 15.7690625 -7.7690625 15.7690625 -9 17 C-9.99 17 -10.98 17 -12 17 C-11.52949219 16.55269531 -11.05898437 16.10539062 -10.57421875 15.64453125 C-7.10877117 12.27953143 -4.42332923 9.20894024 -2 5 C-1.34 5 -0.68 5 0 5 C0 3.35 0 1.7 0 0 Z " fill="#292C2E" transform="translate(233,205)"/>
<path d="M0 0 C3.5742977 0.32493615 5.55712453 0.63870686 8.375 2.9375 C10 5 10 5 10 7 C12.31 7.66 14.62 8.32 17 9 C17 9.66 17 10.32 17 11 C4.44555215 7.14340491 4.44555215 7.14340491 1.1875 2.3125 C0.795625 1.549375 0.40375 0.78625 0 0 Z " fill="#AC94E8" transform="translate(117,240)"/>
<path d="M0 0 C4.455 0.99 4.455 0.99 9 2 C9 3.66666667 9 5.33333333 9 7 C4.02906176 6.58846263 -0.44508386 6.20399168 -5 4 C-5 3.67 -5 3.34 -5 3 C-3.02 2.67 -1.04 2.34 1 2 C0.67 1.34 0.34 0.68 0 0 Z " fill="#A791DD" transform="translate(141,249)"/>
<path d="M0 0 C0 2.64 0 5.28 0 8 C-1.65614657 8.38218767 -3.32457024 8.71395102 -5 9 C-6 8 -6 8 -6.0625 4.4375 C-6.041875 3.303125 -6.02125 2.16875 -6 1 C-4 0 -4 0 0 0 Z " fill="#090909" transform="translate(169,176)"/>
<path d="M0 0 C1.32 0.33 2.64 0.66 4 1 C4 1.66 4 2.32 4 3 C10.93 3.495 10.93 3.495 18 4 C18 3.01 18 2.02 18 1 C18.66 1 19.32 1 20 1 C20.33 1.99 20.66 2.98 21 4 C16.03075341 6.96724797 10.60903473 6.78052052 5 6 C2.50405895 4.56933688 1.65744734 3.42697646 0 1 C0 0.67 0 0.34 0 0 Z " fill="#799BE7" transform="translate(207,32)"/>
<path d="M0 0 C4.95 0.33 9.9 0.66 15 1 C15 1.66 15 2.32 15 3 C21.6 3 28.2 3 35 3 C35 3.33 35 3.66 35 4 C10.01734161 4.61916858 10.01734161 4.61916858 0 1 C0 0.67 0 0.34 0 0 Z " fill="#B393DF" transform="translate(124,265)"/>
<path d="M0 0 C2.92577407 2.58818476 4.70518089 5.21372463 6.625 8.5625 C9.6512629 13.30468516 12.65083207 14.44775414 18.0234375 15.66015625 C19.00183594 15.82837891 19.00183594 15.82837891 20 16 C20 16.66 20 17.32 20 18 C14.19555029 17.59969312 10.44554933 17.05897983 6 13 C0 3.69724771 0 3.69724771 0 0 Z " fill="#DFCECA" transform="translate(209,64)"/>
<path d="M0 0 C0.33 0.66 0.66 1.32 1 2 C6.26610144 3.03404593 11.58585176 3.28276517 16.9375 3.5625 C17.71673828 3.60568359 18.49597656 3.64886719 19.29882812 3.69335938 C21.19907117 3.79828077 23.09951669 3.8995245 25 4 C25 4.33 25 4.66 25 5 C13.53795877 5.30854946 3.06209668 5.39129971 -8 2 C-8 1.67 -8 1.34 -8 1 C-5.23735711 0.40267181 -2.83967231 0 0 0 Z " fill="#58516B" transform="translate(148,247)"/>
<path d="M0 0 C0.66 0.33 1.32 0.66 2 1 C2.70048208 8.42511009 0.37081613 13.4509858 -3 20 C-3.66 20 -4.32 20 -5 20 C-4.80664062 19.39414063 -4.61328125 18.78828125 -4.4140625 18.1640625 C-2.54867496 12.16157783 -1.11840293 6.1841103 0 0 Z " fill="#DED4E9" transform="translate(79,141)"/>
<path d="M0 0 C0.99 0.33 1.98 0.66 3 1 C1.68 3.31 0.36 5.62 -1 8 C-1.66 8 -2.32 8 -3 8 C-3.12375 8.556875 -3.2475 9.11375 -3.375 9.6875 C-4.05976855 12.22114364 -4.99133763 14.57921032 -6 17 C-6.66 17 -7.32 17 -8 17 C-7.42231401 13.32617676 -6.42308392 10.58823394 -4.5625 7.375 C-4.13066406 6.61960937 -3.69882813 5.86421875 -3.25390625 5.0859375 C-2.21701251 3.36101146 -1.11638406 1.67457609 0 0 Z " fill="#E6E6E5" transform="translate(93,109)"/>
<path d="M0 0 C2.64874208 2.00445346 3.77780087 3.36514535 4.875 6.5 C5.01570001 9.31400019 4.48400777 10.64304648 3 13 C2.9175 11.741875 2.835 10.48375 2.75 9.1875 C2.37638993 6.26088782 2.20405837 5.24049737 0.25 2.9375 C-2.63546762 1.73522182 -4.03715853 2.11114756 -7 3 C-7.763125 3.185625 -8.52625 3.37125 -9.3125 3.5625 C-9.869375 3.706875 -10.42625 3.85125 -11 4 C-10 1 -10 1 -8.3125 -0.25 C-5.13382332 -1.28092217 -3.19422968 -0.93165032 0 0 Z " fill="#F5C2C9" transform="translate(240,51)"/>
<path d="M0 0 C2.97 0.495 2.97 0.495 6 1 C6 1.66 6 2.32 6 3 C7.65 3 9.3 3 11 3 C11.33 3.66 11.66 4.32 12 5 C13.7325 5.4640625 13.7325 5.4640625 15.5 5.9375 C16.655 6.288125 17.81 6.63875 19 7 C19.33 7.99 19.66 8.98 20 10 C12.57067083 8.1979925 6.25430296 5.44454721 0 1 C0 0.67 0 0.34 0 0 Z " fill="#A886D6" transform="translate(103,255)"/>
<path d="M0 0 C0.99 0 1.98 0 3 0 C3 3 3 3 2 6 C1.34 6 0.68 6 0 6 C0 6.99 0 7.98 0 9 C-0.66 9 -1.32 9 -2 9 C-2.33 9.99 -2.66 10.98 -3 12 C-5.0625 12.6875 -5.0625 12.6875 -7 13 C-6.690625 12.401875 -6.38125 11.80375 -6.0625 11.1875 C-4.89790296 8.91043228 -4.89790296 8.91043228 -4 6 C-3.34 6 -2.68 6 -2 6 C-1.34 4.02 -0.68 2.04 0 0 Z " fill="#9AB9F7" transform="translate(246,207)"/>
<path d="M0 0 C0.33 0 0.66 0 1 0 C1 1.65 1 3.3 1 5 C0.34 5 -0.32 5 -1 5 C-1.185625 5.70125 -1.37125 6.4025 -1.5625 7.125 C-3.59901034 11.19802068 -6.44806549 13.17160771 -10 16 C-9.01 13.03 -8.02 10.06 -7 7 C-6.01 7.33 -5.02 7.66 -4 8 C-3.67 6.35 -3.34 4.7 -3 3 C-2.34 3 -1.68 3 -1 3 C-0.67 2.01 -0.34 1.02 0 0 Z " fill="#B56398" transform="translate(278,164)"/>
<path d="M0 0 C1.32 1.32 2.64 2.64 4 4 C1.25 8.875 1.25 8.875 -1 10 C-1.66 7.69 -2.32 5.38 -3 3 C-2.01 2.67 -1.02 2.34 0 2 C0 1.34 0 0.68 0 0 Z M-4 10 C-3.01 10 -2.02 10 -1 10 C-1 10.66 -1 11.32 -1 12 C-1.99 11.67 -2.98 11.34 -4 11 C-4 10.67 -4 10.34 -4 10 Z " fill="#E7AFC0" transform="translate(239,108)"/>
<path d="M0 0 C0.33 0 0.66 0 1 0 C1 1.98 1 3.96 1 6 C0.01 6 -0.98 6 -2 6 C-2 6.99 -2 7.98 -2 9 C-8.625 12 -8.625 12 -12 12 C-11.30132812 11.38511719 -10.60265625 10.77023438 -9.8828125 10.13671875 C-8.51769531 8.92435547 -8.51769531 8.92435547 -7.125 7.6875 C-6.22007812 6.88699219 -5.31515625 6.08648437 -4.3828125 5.26171875 C-1.86787689 3.04188943 -1.86787689 3.04188943 0 0 Z " fill="#3B6CE4" transform="translate(277,172)"/>
<path d="M0 0 C0.99 0.33 1.98 0.66 3 1 C-1.95 7.435 -1.95 7.435 -7 14 C-7.33 12.68 -7.66 11.36 -8 10 C-7.34 10 -6.68 10 -6 10 C-6 8.35 -6 6.7 -6 5 C-4.02 4.34 -2.04 3.68 0 3 C0 2.01 0 1.02 0 0 Z " fill="#6F96EC" transform="translate(261,224)"/>
<path d="M0 0 C2.5 0.25 2.5 0.25 4.5 2.25 C4.625 5.375 4.625 5.375 4.5 8.25 C4.17 8.25 3.84 8.25 3.5 8.25 C3.17 6.6 2.84 4.95 2.5 3.25 C1.18 3.25 -0.14 3.25 -1.5 3.25 C-2.16 5.23 -2.82 7.21 -3.5 9.25 C-4.82 8.92 -6.14 8.59 -7.5 8.25 C-6.51 7.92 -5.52 7.59 -4.5 7.25 C-4.561875 6.074375 -4.561875 6.074375 -4.625 4.875 C-4.45379857 1.27977007 -3.58504467 0.35850447 0 0 Z " fill="#636363" transform="translate(165.5,162.75)"/>
<path d="M0 0 C0.99 0.495 0.99 0.495 2 1 C2.45703125 3.0390625 2.45703125 3.0390625 2.8125 5.625 C3.74778291 10.91733258 5.60193186 13.88654909 9 18 C4.61144323 16.27592413 2.08513063 13.17026127 0 9 C-0.06950541 7.45976004 -0.08452357 5.91665012 -0.0625 4.375 C-0.05347656 3.55773437 -0.04445312 2.74046875 -0.03515625 1.8984375 C-0.02355469 1.27195312 -0.01195312 0.64546875 0 0 Z " fill="#F8C3C7" transform="translate(49,107)"/>
<path d="M0 0 C0 0.66 0 1.32 0 2 C-1.65532623 3.01866229 -3.32260138 4.01810813 -5 5 C-5.33 5.66 -5.66 6.32 -6 7 C-6.66 7 -7.32 7 -8 7 C-8.66 8.98 -9.32 10.96 -10 13 C-10.66 13 -11.32 13 -12 13 C-11.56562648 8.07710011 -9.356381 5.51249175 -6 2 C-3.73850954 0.57849171 -2.64756184 0 0 0 Z " fill="#87C2F6" transform="translate(213,4)"/>
<path d="M0 0 C-1.10789408 3.32368224 -1.48436217 3.61563093 -4.375 5.25 C-5.28378906 5.78367188 -5.28378906 5.78367188 -6.2109375 6.328125 C-8 7 -8 7 -11 6 C-10.01 5.67 -9.02 5.34 -8 5 C-8.33 3.68 -8.66 2.36 -9 1 C-6.04335481 -0.4783226 -3.25770263 -0.06032783 0 0 Z " fill="#363742" transform="translate(212,235)"/>
<path d="M0 0 C2.475 0.99 2.475 0.99 5 2 C5.33 5.63 5.66 9.26 6 13 C3.33333333 9 0.66666667 5 -2 1 C-1.34 0.67 -0.68 0.34 0 0 Z " fill="#B3929B" transform="translate(230,112)"/>
<path d="M0 0 C-1.45765165 1.62561151 -2.91614386 3.25046934 -4.375 4.875 C-5.18710938 5.77992187 -5.99921875 6.68484375 -6.8359375 7.6171875 C-8.19076205 9.10896183 -9.57505435 10.57505435 -11 12 C-11.56123666 8.1835907 -11.03056013 7.04329351 -8.75 3.8125 C-3.37313433 -1.68656716 -3.37313433 -1.68656716 0 0 Z " fill="#37342E" transform="translate(109,108)"/>
<path d="M0 0 C5.94 1.485 5.94 1.485 12 3 C12.33 2.34 12.66 1.68 13 1 C15.475 1.99 15.475 1.99 18 3 C18 3.33 18 3.66 18 4 C12.72 4 7.44 4 2 4 C1.34 2.68 0.68 1.36 0 0 Z " fill="#A988B7" transform="translate(217,79)"/>
<path d="M0 0 C0.66 0 1.32 0 2 0 C2.13277344 0.63808594 2.26554688 1.27617188 2.40234375 1.93359375 C2.57894531 2.75988281 2.75554687 3.58617187 2.9375 4.4375 C3.11152344 5.26121094 3.28554687 6.08492187 3.46484375 6.93359375 C3.80752994 8.97661204 3.80752994 8.97661204 5 10 C7.67058851 10.14115161 10.32432238 10.04247107 13 10 C12.67 10.66 12.34 11.32 12 12 C4.7027027 12.48648649 4.7027027 12.48648649 1.5625 10.3125 C-0.16211074 7.7600761 -0.76453675 6.06102228 -1 3 C-0.67 2.01 -0.34 1.02 0 0 Z " fill="#F9BFC8" transform="translate(228,56)"/>
<path d="M0 0 C0.268125 0.61875 0.53625 1.2375 0.8125 1.875 C1.95556848 4.2995233 1.95556848 4.2995233 5 6 C7.05709596 6.24055468 7.05709596 6.24055468 9.1875 6.125 C10.445625 6.08375 11.70375 6.0425 13 6 C11.875 7.5 11.875 7.5 10 9 C6.67439432 9.42454541 4.66319551 9.31414524 1.625 7.875 C0 6 0 6 -0.25 2.8125 C-0.1675 1.884375 -0.085 0.95625 0 0 Z " fill="#BBA0E0" transform="translate(135,289)"/>
<path d="M0 0 C-3.23507998 4.4114727 -6.84557192 4.84694558 -11.953125 5.703125 C-12.62859375 5.80109375 -13.3040625 5.8990625 -14 6 C-13 3 -13 3 -11.328125 2.05078125 C-7.43666975 0.66829057 -4.19816517 -0.39357798 0 0 Z " fill="#4C39D0" transform="translate(186,258)"/>
<path d="M0 0 C0.7425 0.45375 1.485 0.9075 2.25 1.375 C7.12213424 3.85814088 12.64597165 4.26360452 18 5 C18 5.33 18 5.66 18 6 C15.93867858 6.10864945 13.87568679 6.18588321 11.8125 6.25 C10.08966797 6.31960937 10.08966797 6.31960937 8.33203125 6.390625 C4.37011251 5.92615622 2.76858652 4.81551171 0 2 C0 1.34 0 0.68 0 0 Z " fill="#565656" transform="translate(119,166)"/>
<path d="M0 0 C0.66 0 1.32 0 2 0 C2.53532823 1.55759343 3.05265378 3.12138045 3.5625 4.6875 C3.85253906 5.55761719 4.14257812 6.42773438 4.44140625 7.32421875 C5.05141961 10.24631074 4.77703633 12.14400553 4 15 C1.73625389 12.73625389 1.51648574 11.68987631 0.875 8.625 C0.70742187 7.85414063 0.53984375 7.08328125 0.3671875 6.2890625 C0 4 0 4 0 0 Z " fill="#9379B4" transform="translate(80,183)"/>
<path d="M0 0 C5.841744 -0.35050464 9.8531808 -0.16727335 15 3 C15 3.99 15 4.98 15 6 C14.38125 5.525625 13.7625 5.05125 13.125 4.5625 C8.83894324 2.41947162 4.73399291 2.26657436 0 2 C0 1.34 0 0.68 0 0 Z " fill="#9DB8F1" transform="translate(214,3)"/>
<path d="M0 0 C-2.49996659 2.9777759 -5.04711071 3.94548483 -8.6875 5.1875 C-9.68136719 5.53167969 -10.67523438 5.87585938 -11.69921875 6.23046875 C-12.45847656 6.48441406 -13.21773437 6.73835937 -14 7 C-14 6.01 -14 5.02 -14 4 C-10.535 3.505 -10.535 3.505 -7 3 C-6.67 2.01 -6.34 1.02 -6 0 C-3 -1 -3 -1 0 0 Z " fill="#82ACFB" transform="translate(221,244)"/>
<path d="M0 0 C0.66 0 1.32 0 2 0 C2.72750788 1.40691607 3.43140353 2.82606022 4.125 4.25 C4.51945312 5.03890625 4.91390625 5.8278125 5.3203125 6.640625 C6 9 6 9 5.1171875 11.296875 C4.74851562 11.85890625 4.37984375 12.4209375 4 13 C3.67 11.35 3.34 9.7 3 8 C2.34 8 1.68 8 1 8 C0.67 5.36 0.34 2.72 0 0 Z " fill="#9B81C1" transform="translate(84,197)"/>
<path d="M0 0 C2 4 2 4 3 7 C2.01 7.33 1.02 7.66 0 8 C0.33 9.98 0.66 11.96 1 14 C-0.32 14 -1.64 14 -3 14 C-2.01 9.38 -1.02 4.76 0 0 Z " fill="#D1B4C1" transform="translate(246,181)"/>
<path d="M0 0 C0.99 0 1.98 0 3 0 C3.38281159 5.23175837 2.21854707 8.37802694 0 13 C-0.33 13 -0.66 13 -1 13 C-0.67 8.71 -0.34 4.42 0 0 Z " fill="#658DE8" transform="translate(271,199)"/>
<path d="M0 0 C3 1 3 1 4.16796875 2.84765625 C4.50441406 3.57855469 4.84085938 4.30945313 5.1875 5.0625 C5.53167969 5.79597656 5.87585938 6.52945313 6.23046875 7.28515625 C6.48441406 7.85105469 6.73835937 8.41695312 7 9 C4.69 8.34 2.38 7.68 0 7 C0 4.69 0 2.38 0 0 Z " fill="#CAA3AE" transform="translate(227,105)"/>
<path d="M0 0 C4.08596252 1.52763464 5.79826179 4.11084191 8.25 7.625 C8.95640625 8.62789062 9.6628125 9.63078125 10.390625 10.6640625 C11.18726563 11.82035156 11.18726563 11.82035156 12 13 C11.67 13.66 11.34 14.32 11 15 C10.54109375 14.39671875 10.0821875 13.7934375 9.609375 13.171875 C8.68898438 11.97304687 8.68898438 11.97304687 7.75 10.75 C7.14671875 9.96109375 6.5434375 9.1721875 5.921875 8.359375 C4.03568944 5.95085226 4.03568944 5.95085226 1.765625 3.828125 C0 2 0 2 0 0 Z " fill="#FABDC1" transform="translate(267,96)"/>
<path d="M0 0 C0.33 0.66 0.66 1.32 1 2 C-2.08632611 5.2626876 -4.93483504 8.02235218 -9 10 C-9.66 9.67 -10.32 9.34 -11 9 C-7.37 6.03 -3.74 3.06 0 0 Z " fill="#4479ED" transform="translate(234,233)"/>
<path d="M0 0 C0.66 0 1.32 0 2 0 C1.07506212 3.78383679 0.60628829 5.56693694 -2.625 7.875 C-3.40875 8.24625 -4.1925 8.6175 -5 9 C-5 8.01 -5 7.02 -5 6 C-5.66 5.67 -6.32 5.34 -7 5 C-5.824375 4.87625 -5.824375 4.87625 -4.625 4.75 C-1.85250896 4.27193661 -1.85250896 4.27193661 -0.6875 1.9375 C-0.460625 1.298125 -0.23375 0.65875 0 0 Z " fill="#A1B9F5" transform="translate(256,189)"/>
<path d="M0 0 C0.66 0.33 1.32 0.66 2 1 C-0.13790949 3.35170044 -2.00593401 4.88791835 -5 6 C-8.25 6.125 -8.25 6.125 -11 6 C-8.88613536 3.88613536 -7.20732397 3.02991678 -4.5 1.8125 C-3.7059375 1.44769531 -2.911875 1.08289063 -2.09375 0.70703125 C-1.4028125 0.47371094 -0.711875 0.24039063 0 0 Z " fill="#4578EA" transform="translate(213,248)"/>
<path d="M0 0 C0.33 0 0.66 0 1 0 C1.05429959 1.74965358 1.09292823 3.49979787 1.125 5.25 C1.14820312 6.22453125 1.17140625 7.1990625 1.1953125 8.203125 C0.99862781 11.0196498 0.44568916 12.60949036 -1 15 C-1.66 15 -2.32 15 -3 15 C-2.67 12.69 -2.34 10.38 -2 8 C-1.34 8 -0.68 8 0 8 C0 5.36 0 2.72 0 0 Z " fill="#F5A2AB" transform="translate(78,107)"/>
<path d="M0 0 C0.99 0.33 1.98 0.66 3 1 C3 1.99 3 2.98 3 4 C-0.33333333 5.66666667 -3.66666667 7.33333333 -7 9 C-6.02180976 7.68677212 -5.0424189 6.37443848 -4.0625 5.0625 C-3.51722656 4.33160156 -2.97195312 3.60070312 -2.41015625 2.84765625 C-1 1 -1 1 0 0 Z " fill="#121110" transform="translate(115,100)"/>
<path d="M0 0 C3.59905908 0.55550695 4.99909799 1.74887248 7.25 4.5625 C8.03117187 5.52349609 8.03117187 5.52349609 8.828125 6.50390625 C9.21484375 6.99761719 9.6015625 7.49132812 10 8 C8.32700041 7.34938905 6.66140763 6.67966676 5 6 C4.2575 5.71125 3.515 5.4225 2.75 5.125 C1 4 1 4 0.25 1.875 C0.1675 1.25625 0.085 0.6375 0 0 Z " fill="#ED7982" transform="translate(264,97)"/>
<path d="M0 0 C0.66 0 1.32 0 2 0 C0.43358249 4.30764815 -1.68336156 8.06171464 -4 12 C-4.66 12 -5.32 12 -6 12 C-4.68448876 7.39571066 -2.90803514 3.81679612 0 0 Z " fill="#FBDFBB" transform="translate(107,65)"/>
<path d="M0 0 C4.06815373 1.84916079 7.0094833 3.66442368 10 7 C8.203125 7.67578125 8.203125 7.67578125 6 8 C4.296875 6.85546875 4.296875 6.85546875 2.75 5.1875 C2.22921875 4.64480469 1.7084375 4.10210937 1.171875 3.54296875 C0 2 0 2 0 0 Z " fill="#6A3DC7" transform="translate(107,236)"/>
<path d="M0 0 C0.33 0.66 0.66 1.32 1 2 C0.401875 2.268125 -0.19625 2.53625 -0.8125 2.8125 C-3.04267613 3.88022403 -3.04267613 3.88022403 -4.5625 5.625 C-6 7 -6 7 -9 7 C-9 7.66 -9 8.32 -9 9 C-9.66 9 -10.32 9 -11 9 C-11 8.01 -11 7.02 -11 6 C-7.37 4.02 -3.74 2.04 0 0 Z " fill="#BAB6DF" transform="translate(258,187)"/>
<path d="M0 0 C0.33 0.99 0.66 1.98 1 3 C2.65 3 4.3 3 6 3 C4.02 5.97 4.02 5.97 2 9 C1.01 8.67 0.02 8.34 -1 8 C-0.67 5.36 -0.34 2.72 0 0 Z " fill="#B96190" transform="translate(260,178)"/>
<path d="M0 0 C0.66 0 1.32 0 2 0 C1.50269348 4.97306516 0.44697666 8.63799813 -2 13 C-3.18414294 9.44757118 -2.69535532 8.30169438 -1.5625 4.8125 C-1.27503906 3.91144531 -0.98757812 3.01039063 -0.69140625 2.08203125 C-0.46324219 1.39496094 -0.23507813 0.70789063 0 0 Z " fill="#E7E7E7" transform="translate(83,127)"/>
<path d="M0 0 C0.721875 0.103125 1.44375 0.20625 2.1875 0.3125 C1.1975 0.9725 0.2075 1.6325 -0.8125 2.3125 C-3.82057169 5.10046888 -6.25249583 7.48339886 -7.8125 11.3125 C-8.28433746 7.25469787 -8.14579645 5.75054676 -5.625 2.4375 C-2.8125 0.3125 -2.8125 0.3125 0 0 Z " fill="#C8B5EB" transform="translate(141.8125,281.6875)"/>
<path d="M0 0 C0.33 0 0.66 0 1 0 C1 2.64 1 5.28 1 8 C0.34 8 -0.32 8 -1 8 C-1.33 9.32 -1.66 10.64 -2 12 C-2.66 11.67 -3.32 11.34 -4 11 C-2.68 7.37 -1.36 3.74 0 0 Z " fill="#2B292C" transform="translate(242,185)"/>
<path d="M0 0 C0.66 0 1.32 0 2 0 C2 3.3 2 6.6 2 10 C2.99 10.33 3.98 10.66 5 11 C4.67 12.32 4.34 13.64 4 15 C1.1496974 11.79054398 0.56548301 9.50011452 0.3125 5.25 C0.24675781 4.26515625 0.18101563 3.2803125 0.11328125 2.265625 C0.07589844 1.51796875 0.03851563 0.7703125 0 0 Z " fill="#F2969E" transform="translate(50,105)"/>
<path d="M0 0 C0.99 0.33 1.98 0.66 3 1 C0.69 3.64 -1.62 6.28 -4 9 C-4.66 8.34 -5.32 7.68 -6 7 C-4.02 4.69 -2.04 2.38 0 0 Z " fill="#FBD7A5" transform="translate(114,57)"/>
<path d="M0 0 C0.33 0.66 0.66 1.32 1 2 C1.66386719 1.96519531 2.32773438 1.93039063 3.01171875 1.89453125 C11.78207381 1.62565905 11.78207381 1.62565905 16 5 C15.34 5.66 14.68 6.32 14 7 C13.360625 6.525625 12.72125 6.05125 12.0625 5.5625 C8.07818481 3.52968613 4.41505926 3.2789471 0 3 C0 2.01 0 1.02 0 0 Z " fill="#5B83E5" transform="translate(213,3)"/>
<path d="M0 0 C2.31 0 4.62 0 7 0 C4.6875 2.5 4.6875 2.5 2 5 C1.01 5 0.02 5 -1 5 C-0.67 3.35 -0.34 1.7 0 0 Z " fill="#6A92ED" transform="translate(239,245)"/>
<path d="M0 0 C0.33 0.99 0.66 1.98 1 3 C-0.9628843 6.1708131 -2.12536 7.74158364 -5.75 8.8125 C-6.4925 8.874375 -7.235 8.93625 -8 9 C-8 8.34 -8 7.68 -8 7 C-7.236875 6.54625 -6.47375 6.0925 -5.6875 5.625 C-2.99130956 3.99474531 -1.70517864 2.60264108 0 0 Z " fill="#6C6C6C" transform="translate(214,162)"/>
<path d="M0 0 C2.5 2.0625 2.5 2.0625 5 5 C5.3125 8.8125 5.3125 8.8125 5 12 C4.34 12 3.68 12 3 12 C2.87625 10.88625 2.7525 9.7725 2.625 8.625 C2.3534187 4.96896323 2.3534187 4.96896323 0 3 C0 2.01 0 1.02 0 0 Z " fill="#606060" transform="translate(179,124)"/>
<path d="M0 0 C2.64 0.66 5.28 1.32 8 2 C7.67 2.99 7.34 3.98 7 5 C2.25 4.125 2.25 4.125 0 3 C0 2.01 0 1.02 0 0 Z " fill="#ECCCB5" transform="translate(202,82)"/>
<path d="M0 0 C0 3 0 3 -1 6 C-3.31 6 -5.62 6 -8 6 C-5.63379989 3.38472619 -3.057952 1.73559438 0 0 Z " fill="#252524" transform="translate(211,230)"/>
<path d="M0 0 C0 3.77910478 -0.99703962 4.46106101 -3.5 7.1875 C-4.1496875 7.90292969 -4.799375 8.61835937 -5.46875 9.35546875 C-5.9740625 9.89816406 -6.479375 10.44085938 -7 11 C-7.66 10.67 -8.32 10.34 -9 10 C-6.03 6.7 -3.06 3.4 0 0 Z " fill="#F4B86E" transform="translate(118,56)"/>
<path d="M0 0 C1.32 0.66 2.64 1.32 4 2 C3.01 2.33 2.02 2.66 1 3 C1.33 4.32 1.66 5.64 2 7 C-0.475 6.01 -0.475 6.01 -3 5 C-3 3 -3 3 -1.5 1.375 C-1.005 0.92125 -0.51 0.4675 0 0 Z " fill="#673AC9" transform="translate(132,251)"/>
<path d="M0 0 C0 0.99 0 1.98 0 3 C-6.28571429 5.42857143 -6.28571429 5.42857143 -10 4 C-3.375 0 -3.375 0 0 0 Z " fill="#99B7F9" transform="translate(207,248)"/>
<path d="M0 0 C6.4 0.49230769 6.4 0.49230769 9.4375 3.0625 C10.2109375 4.0215625 10.2109375 4.0215625 11 5 C2.28571429 3.14285714 2.28571429 3.14285714 0 0 Z " fill="#DEB388" transform="translate(201,80)"/>
<path d="M0 0 C0.66 0 1.32 0 2 0 C2 3.3 2 6.6 2 10 C1.34 10 0.68 10 0 10 C-1.125 3.375 -1.125 3.375 0 0 Z " fill="#86A3E6" transform="translate(201,17)"/>
<path d="M0 0 C-0.99 1.32 -1.98 2.64 -3 4 C-4.32 3.67 -5.64 3.34 -7 3 C-7 2.01 -7 1.02 -7 0 C-4.3333581 -1.33332095 -2.83319697 -0.67102033 0 0 Z " fill="#562ABD" transform="translate(140,254)"/>
<path d="M0 0 C1.32 0.99 2.64 1.98 4 3 C3.01 3.495 3.01 3.495 2 4 C2.99 5.485 2.99 5.485 4 7 C0.63408134 5.55746343 -1.51047079 3.66735273 -4 1 C-2.68 1.33 -1.36 1.66 0 2 C0 1.34 0 0.68 0 0 Z " fill="#9D84DD" transform="translate(116,237)"/>
<path d="M0 0 C0.99 0 1.98 0 3 0 C3 0.66 3 1.32 3 2 C4.32 2.33 5.64 2.66 7 3 C7 4.65 7 6.3 7 8 C4.35247996 5.42215154 2.05567935 3.08351902 0 0 Z " fill="#CB6584" transform="translate(237,105)"/>
<path d="M0 0 C2.97 0 5.94 0 9 0 C9.33 1.32 9.66 2.64 10 4 C6.7 3.01 3.4 2.02 0 1 C0 0.67 0 0.34 0 0 Z " fill="#4F475B" transform="translate(129,244)"/>
<path d="M0 0 C1.60080151 4.00200378 0.29279692 7.04556236 -1 11 C-1.33 11 -1.66 11 -2 11 C-2 7.7 -2 4.4 -2 1 C-1.34 0.67 -0.68 0.34 0 0 Z " fill="#68565C" transform="translate(245,182)"/>
<path d="M0 0 C1.18414294 3.55242882 0.69535532 4.69830562 -0.4375 8.1875 C-0.72496094 9.08855469 -1.01242187 9.98960937 -1.30859375 10.91796875 C-1.53675781 11.60503906 -1.76492188 12.29210937 -2 13 C-2.33 13 -2.66 13 -3 13 C-2.88652381 11.02013918 -2.7589065 9.04108402 -2.625 7.0625 C-2.55539062 5.96035156 -2.48578125 4.85820312 -2.4140625 3.72265625 C-2.27742188 2.82417969 -2.14078125 1.92570313 -2 1 C-1.34 0.67 -0.68 0.34 0 0 Z " fill="#F1B7C6" transform="translate(282,158)"/>
<path d="M0 0 C2.97 0 5.94 0 9 0 C7.515 1.98 7.515 1.98 6 4 C1.125 2.25 1.125 2.25 0 0 Z " fill="#ED7382" transform="translate(228,83)"/>
<path d="M0 0 C-8.42857143 3.42857143 -8.42857143 3.42857143 -13 3 C-8.72847969 -0.63870249 -5.37245593 -1.50246649 0 0 Z " fill="#CCA77D" transform="translate(140,82)"/>
<path d="M0 0 C0.99 0.33 1.98 0.66 3 1 C1.37660195 2.70884005 -0.29319053 4.37446717 -2 6 C-2.66 6 -3.32 6 -4 6 C-3.6875 4.125 -3.6875 4.125 -3 2 C-2.01 1.34 -1.02 0.68 0 0 Z " fill="#39424F" transform="translate(220,227)"/>
<path d="M0 0 C0.66 0 1.32 0 2 0 C2.66 1.65 3.32 3.3 4 5 C3.01 5.66 2.02 6.32 1 7 C0.34 6.67 -0.32 6.34 -1 6 C-0.67 4.02 -0.34 2.04 0 0 Z " fill="#D4A2A5" transform="translate(217,95)"/>
<path d="M0 0 C-2.97 1.65 -5.94 3.3 -9 5 C-9.33 4.34 -9.66 3.68 -10 3 C-9.01 3 -8.02 3 -7 3 C-6.67 2.01 -6.34 1.02 -6 0 C-3 -1 -3 -1 0 0 Z " fill="#B8AA98" transform="translate(122,95)"/>
<path d="M0 0 C1.65 0 3.3 0 5 0 C5.66 1.98 6.32 3.96 7 6 C6.01 5.67 5.02 5.34 4 5 C4 4.34 4 3.68 4 3 C2.68 2.67 1.36 2.34 0 2 C0 1.34 0 0.68 0 0 Z " fill="#E76F73" transform="translate(214,84)"/>
<path d="M0 0 C-6.75 4 -6.75 4 -9 4 C-9 3.01 -9 2.02 -9 1 C-3.375 -1.125 -3.375 -1.125 0 0 Z " fill="#709BE9" transform="translate(233,256)"/>
<path d="M0 0 C3.36720387 1.39332574 4.9859524 2.9789286 7 6 C6.01 6.33 5.02 6.66 4 7 C0 2.25 0 2.25 0 0 Z " fill="#A690CF" transform="translate(100,224)"/>
<path d="M0 0 C0.66 0 1.32 0 2 0 C1.34 2.64 0.68 5.28 0 8 C-0.66 8 -1.32 8 -2 8 C-2.125 5.125 -2.125 5.125 -2 2 C-1.34 1.34 -0.68 0.68 0 0 Z " fill="#595959" transform="translate(156,128)"/>
<path d="M0 0 C0.66 0 1.32 0 2 0 C2.66 2.31 3.32 4.62 4 7 C2.68 6.67 1.36 6.34 0 6 C0 4.02 0 2.04 0 0 Z " fill="#CBA5AF" transform="translate(236,120)"/>
<path d="M0 0 C0.66 0.33 1.32 0.66 2 1 C0.95125002 3.62187494 0.35068687 4.79371361 -2.125 6.25 C-2.74375 6.4975 -3.3625 6.745 -4 7 C-3.43628586 3.73045798 -2.50037734 2.17424117 0 0 Z " fill="#F0909A" transform="translate(57,99)"/>
<path d="M0 0 C2.125 0.375 2.125 0.375 4 1 C-1.75 6 -1.75 6 -4 6 C-2.84826645 3.53199953 -1.95216435 1.95216435 0 0 Z " fill="#FAC1C4" transform="translate(55,98)"/>
<path d="M0 0 C-2.97180943 1.89865603 -5.51460083 3.35455571 -9 4 C-8 1 -8 1 -6.1875 -0.25 C-3.66056586 -1.11637742 -2.47778006 -0.88492145 0 0 Z " fill="#FACCD3" transform="translate(238,51)"/>
<path d="M0 0 C0 0.66 0 1.32 0 2 C-1.65532623 3.01866229 -3.32260138 4.01810813 -5 5 C-5.33 5.66 -5.66 6.32 -6 7 C-6.66 6.67 -7.32 6.34 -8 6 C-6.98565881 3.46414701 -6.34981128 2.21863205 -4 0.75 C-2 0 -2 0 0 0 Z " fill="#94B0EC" transform="translate(213,4)"/>
<path d="M0 0 C0.66 0.33 1.32 0.66 2 1 C0.35 2.98 -1.3 4.96 -3 7 C-3.66 5.68 -4.32 4.36 -5 3 C-2.625 1.4375 -2.625 1.4375 0 0 Z " fill="#A0A8D3" transform="translate(209,238)"/>
<path d="M0 0 C0.66 0.33 1.32 0.66 2 1 C-0.3125 3.5 -0.3125 3.5 -3 6 C-3.99 6 -4.98 6 -6 6 C-6 5.34 -6 4.68 -6 4 C-4.03852126 2.61061923 -2.03833424 1.2739589 0 0 Z " fill="#505050" transform="translate(209,207)"/>
</svg>
